ply
format ascii 1.0
comment : 
comment : MagicaVoxel @ Ephtracy
element vertex 30
property float x
property float y
property float z
property uchar red
property uchar green
property uchar blue
element face 24
property list uchar int vertex_index
end_header
18 -3 19 69 69 69
19 -3 19 69 69 69
19 -2 19 69 69 69
18 -2 19 69 69 69
18.5 -2.5 19 69 69 69
19 -3 18 42 42 42
19 -2 18 42 42 42
19 -2 19 42 42 42
19 -3 19 42 42 42
19 -2.5 18.5 42 42 42
18 -2 18 38 38 38
18 -2 19 39 39 39
19 -2 19 39 39 39
19 -2 18 38 38 38
18.5 -2 18.5 38 38 38
18 -3 18 7 7 7
18 -2 18 7 7 7
19 -2 18 7 7 7
19 -3 18 7 7 7
18.5 -2.5 18 7 7 7
18 -3 18 37 37 37
18 -3 19 37 37 37
18 -2 19 37 37 37
18 -2 18 37 37 37
18 -2.5 18.5 37 37 37
18 -3 18 41 41 41
19 -3 18 41 41 41
19 -3 19 42 42 42
18 -3 19 42 42 42
18.5 -3 18.5 42 42 42
3 4 0 1
3 4 1 2
3 4 2 3
3 4 3 0
3 9 5 6
3 9 6 7
3 9 7 8
3 9 8 5
3 14 10 11
3 14 11 12
3 14 12 13
3 14 13 10
3 19 15 16
3 19 16 17
3 19 17 18
3 19 18 15
3 24 20 21
3 24 21 22
3 24 22 23
3 24 23 20
3 29 25 26
3 29 26 27
3 29 27 28
3 29 28 25
