# MagicaVoxel @ Ephtracy

# material
mtllib arb.mtl
usemtl palette

# normals
vn -1 0 0
vn 1 0 0
vn 0 0 1
vn 0 0 -1
vn 0 -1 0
vn 0 1 0

# texcoords
vt 0.0917969 0.5
vt 0.900391 0.5

# verts
v -12 3 8
v -12 3 -2
v -12 6 8
v -12 6 -2
v -11 2 9
v -11 2 -3
v -11 3 8
v -11 3 -2
v -11 6 8
v -11 6 -2
v -11 7 9
v -11 7 -3
v -10 1 8
v -10 1 -2
v -10 2 8
v -10 2 -2
v -10 3 10
v -10 3 9
v -10 3 -3
v -10 3 -4
v -10 6 10
v -10 6 9
v -10 6 -3
v -10 6 -4
v -10 7 8
v -10 7 -2
v -10 8 8
v -10 8 -2
v -9 0 7
v -9 0 -2
v -9 1 7
v -9 1 -2
v -9 8 7
v -9 8 -1
v -9 9 7
v -9 9 -1
v -8 9 6
v -8 9 -0
v -8 10 6
v -8 10 -0
v -6 12 5
v -6 12 1
v -6 14 5
v -6 14 1
v -5 11 5
v -5 11 1
v -5 12 5
v -5 12 1
v -4 10 5
v -4 10 1
v -4 11 5
v -4 11 1
v -3 9 6
v -3 9 5
v -3 9 1
v -3 9 -0
v -3 10 6
v -3 10 5
v -3 10 1
v -3 10 -0
v 0 11 5
v 0 11 1
v 0 12 5
v 0 12 1
v 1 12 5
v 1 12 1
v 1 13 5
v 1 13 1
v 2 9 6
v 2 9 5
v 2 9 1
v 2 9 -0
v 2 10 6
v 2 10 5
v 2 10 1
v 2 10 -0
v 2 13 5
v 2 13 1
v 2 14 5
v 2 14 1
v -4 9 6
v -4 9 5
v -4 9 1
v -4 9 -0
v -4 10 6
v -4 10 5
v -4 10 1
v -4 10 -0
v -4 13 5
v -4 13 1
v -4 14 5
v -4 14 1
v -3 12 5
v -3 12 1
v -3 13 5
v -3 13 1
v -2 11 5
v -2 11 1
v -2 12 5
v -2 12 1
v 1 9 6
v 1 9 5
v 1 9 1
v 1 9 -0
v 1 10 6
v 1 10 5
v 1 10 1
v 1 10 -0
v 2 10 5
v 2 10 1
v 2 11 5
v 2 11 1
v 3 11 5
v 3 11 1
v 3 12 5
v 3 12 1
v 4 12 5
v 4 12 1
v 4 14 5
v 4 14 1
v 5 9 6
v 5 9 -0
v 5 10 6
v 5 10 -0
v 6 0 7
v 6 0 -2
v 6 1 7
v 6 1 -2
v 6 8 7
v 6 8 -1
v 6 9 7
v 6 9 -1
v 7 1 8
v 7 1 -2
v 7 2 8
v 7 2 -2
v 7 3 10
v 7 3 9
v 7 3 -3
v 7 3 -4
v 7 6 10
v 7 6 9
v 7 6 -3
v 7 6 -4
v 7 7 8
v 7 7 -2
v 7 8 8
v 7 8 -2
v 8 2 9
v 8 2 -3
v 8 3 8
v 8 3 -2
v 8 6 8
v 8 6 -2
v 8 7 9
v 8 7 -3
v 9 3 8
v 9 3 -2
v 9 6 8
v 9 6 -2
v -10 3 10
v -10 6 10
v 7 3 10
v 7 6 10
v -11 2 9
v -11 7 9
v -10 3 9
v -10 6 9
v 7 3 9
v 7 6 9
v 8 2 9
v 8 7 9
v -12 3 8
v -12 6 8
v -11 3 8
v -11 6 8
v -10 1 8
v -10 2 8
v -10 7 8
v -10 8 8
v 7 1 8
v 7 2 8
v 7 7 8
v 7 8 8
v 8 3 8
v 8 6 8
v 9 3 8
v 9 6 8
v -9 0 7
v -9 1 7
v -9 8 7
v -9 9 7
v 6 0 7
v 6 1 7
v 6 8 7
v 6 9 7
v -8 9 6
v -8 10 6
v -4 9 6
v -4 10 6
v -3 9 6
v -3 10 6
v 1 9 6
v 1 10 6
v 2 9 6
v 2 10 6
v 5 9 6
v 5 10 6
v -6 12 5
v -6 14 5
v -5 11 5
v -5 12 5
v -4 9 5
v -4 10 5
v -4 11 5
v -4 13 5
v -4 14 5
v -3 9 5
v -3 10 5
v -3 12 5
v -3 13 5
v -2 11 5
v -2 12 5
v 0 11 5
v 0 12 5
v 1 9 5
v 1 10 5
v 1 12 5
v 1 13 5
v 2 9 5
v 2 10 5
v 2 11 5
v 2 13 5
v 2 14 5
v 3 11 5
v 3 12 5
v 4 12 5
v 4 14 5
v -6 12 1
v -6 14 1
v -5 11 1
v -5 12 1
v -4 9 1
v -4 10 1
v -4 11 1
v -4 13 1
v -4 14 1
v -3 9 1
v -3 10 1
v -3 12 1
v -3 13 1
v -2 11 1
v -2 12 1
v 0 11 1
v 0 12 1
v 1 9 1
v 1 10 1
v 1 12 1
v 1 13 1
v 2 9 1
v 2 10 1
v 2 11 1
v 2 13 1
v 2 14 1
v 3 11 1
v 3 12 1
v 4 12 1
v 4 14 1
v -8 9 -0
v -8 10 -0
v -4 9 -0
v -4 10 -0
v -3 9 -0
v -3 10 -0
v 1 9 -0
v 1 10 -0
v 2 9 -0
v 2 10 -0
v 5 9 -0
v 5 10 -0
v -9 8 -1
v -9 9 -1
v 6 8 -1
v 6 9 -1
v -12 3 -2
v -12 6 -2
v -11 3 -2
v -11 6 -2
v -10 1 -2
v -10 2 -2
v -10 7 -2
v -10 8 -2
v -9 0 -2
v -9 1 -2
v 6 0 -2
v 6 1 -2
v 7 1 -2
v 7 2 -2
v 7 7 -2
v 7 8 -2
v 8 3 -2
v 8 6 -2
v 9 3 -2
v 9 6 -2
v -11 2 -3
v -11 7 -3
v -10 3 -3
v -10 6 -3
v 7 3 -3
v 7 6 -3
v 8 2 -3
v 8 7 -3
v -10 3 -4
v -10 6 -4
v 7 3 -4
v 7 6 -4
v -9 0 7
v 6 0 7
v -9 0 -2
v 6 0 -2
v -10 1 8
v 7 1 8
v -9 1 7
v 6 1 7
v -10 1 -2
v -9 1 -2
v 6 1 -2
v 7 1 -2
v -11 2 9
v 8 2 9
v -10 2 8
v 7 2 8
v -10 2 -2
v 7 2 -2
v -11 2 -3
v 8 2 -3
v -10 3 10
v 7 3 10
v -10 3 9
v 7 3 9
v -12 3 8
v -11 3 8
v 8 3 8
v 9 3 8
v -12 3 -2
v -11 3 -2
v 8 3 -2
v 9 3 -2
v -10 3 -3
v 7 3 -3
v -10 3 -4
v 7 3 -4
v -5 11 5
v -4 11 5
v 2 11 5
v 3 11 5
v -5 11 1
v -4 11 1
v 2 11 1
v 3 11 1
v -6 12 5
v -5 12 5
v 3 12 5
v 4 12 5
v -6 12 1
v -5 12 1
v 3 12 1
v 4 12 1
v -10 6 10
v 7 6 10
v -10 6 9
v 7 6 9
v -12 6 8
v -11 6 8
v 8 6 8
v 9 6 8
v -12 6 -2
v -11 6 -2
v 8 6 -2
v 9 6 -2
v -10 6 -3
v 7 6 -3
v -10 6 -4
v 7 6 -4
v -11 7 9
v 8 7 9
v -10 7 8
v 7 7 8
v -10 7 -2
v 7 7 -2
v -11 7 -3
v 8 7 -3
v -10 8 8
v 7 8 8
v -9 8 7
v 6 8 7
v -9 8 -1
v 6 8 -1
v -10 8 -2
v 7 8 -2
v -9 9 7
v 6 9 7
v -8 9 6
v -4 9 6
v -3 9 6
v 1 9 6
v 2 9 6
v 5 9 6
v -4 9 5
v -3 9 5
v 1 9 5
v 2 9 5
v -4 9 1
v -3 9 1
v 1 9 1
v 2 9 1
v -8 9 -0
v -4 9 -0
v -3 9 -0
v 1 9 -0
v 2 9 -0
v 5 9 -0
v -9 9 -1
v 6 9 -1
v -8 10 6
v -4 10 6
v -3 10 6
v 1 10 6
v 2 10 6
v 5 10 6
v -4 10 5
v -3 10 5
v 1 10 5
v 2 10 5
v -4 10 1
v -3 10 1
v 1 10 1
v 2 10 1
v -8 10 -0
v -4 10 -0
v -3 10 -0
v 1 10 -0
v 2 10 -0
v 5 10 -0
v -2 11 5
v 0 11 5
v -2 11 1
v 0 11 1
v -3 12 5
v -2 12 5
v 0 12 5
v 1 12 5
v -3 12 1
v -2 12 1
v 0 12 1
v 1 12 1
v -4 13 5
v -3 13 5
v 1 13 5
v 2 13 5
v -4 13 1
v -3 13 1
v 1 13 1
v 2 13 1
v -6 14 5
v -4 14 5
v 2 14 5
v 4 14 5
v -6 14 1
v -4 14 1
v 2 14 1
v 4 14 1

# faces
f 3/1/1 2/1/1 1/1/1
f 4/1/1 2/1/1 3/1/1
f 7/1/1 6/1/1 5/1/1
f 8/1/1 6/1/1 7/1/1
f 9/1/1 7/1/1 5/1/1
f 10/1/1 6/1/1 8/1/1
f 11/1/1 9/1/1 5/1/1
f 11/1/1 10/1/1 9/1/1
f 12/1/1 6/1/1 10/1/1
f 12/1/1 10/1/1 11/1/1
f 15/1/1 14/1/1 13/1/1
f 16/1/1 14/1/1 15/1/1
f 21/1/1 18/1/1 17/1/1
f 22/1/1 18/1/1 21/1/1
f 23/1/1 20/1/1 19/1/1
f 24/1/1 20/1/1 23/1/1
f 27/1/1 26/1/1 25/1/1
f 28/1/1 26/1/1 27/1/1
f 31/1/1 30/1/1 29/1/1
f 32/1/1 30/1/1 31/1/1
f 35/1/1 34/1/1 33/1/1
f 36/1/1 34/1/1 35/1/1
f 39/1/1 38/1/1 37/1/1
f 40/1/1 38/1/1 39/1/1
f 43/2/1 42/2/1 41/2/1
f 44/2/1 42/2/1 43/2/1
f 47/2/1 46/2/1 45/2/1
f 48/2/1 46/2/1 47/2/1
f 51/2/1 50/2/1 49/2/1
f 52/2/1 50/2/1 51/2/1
f 57/2/1 54/2/1 53/2/1
f 58/2/1 54/2/1 57/2/1
f 59/2/1 56/2/1 55/2/1
f 60/2/1 56/2/1 59/2/1
f 63/2/1 62/2/1 61/2/1
f 64/2/1 62/2/1 63/2/1
f 67/2/1 66/2/1 65/2/1
f 68/2/1 66/2/1 67/2/1
f 73/1/1 70/1/1 69/1/1
f 74/1/1 70/1/1 73/1/1
f 75/1/1 72/1/1 71/1/1
f 76/1/1 72/1/1 75/1/1
f 79/2/1 78/2/1 77/2/1
f 80/2/1 78/2/1 79/2/1
f 81/1/2 82/1/2 85/1/2
f 85/1/2 82/1/2 86/1/2
f 83/1/2 84/1/2 87/1/2
f 87/1/2 84/1/2 88/1/2
f 89/2/2 90/2/2 91/2/2
f 91/2/2 90/2/2 92/2/2
f 93/2/2 94/2/2 95/2/2
f 95/2/2 94/2/2 96/2/2
f 97/2/2 98/2/2 99/2/2
f 99/2/2 98/2/2 100/2/2
f 101/2/2 102/2/2 105/2/2
f 105/2/2 102/2/2 106/2/2
f 103/2/2 104/2/2 107/2/2
f 107/2/2 104/2/2 108/2/2
f 109/2/2 110/2/2 111/2/2
f 111/2/2 110/2/2 112/2/2
f 113/2/2 114/2/2 115/2/2
f 115/2/2 114/2/2 116/2/2
f 117/2/2 118/2/2 119/2/2
f 119/2/2 118/2/2 120/2/2
f 121/1/2 122/1/2 123/1/2
f 123/1/2 122/1/2 124/1/2
f 125/1/2 126/1/2 127/1/2
f 127/1/2 126/1/2 128/1/2
f 129/1/2 130/1/2 131/1/2
f 131/1/2 130/1/2 132/1/2
f 133/1/2 134/1/2 135/1/2
f 135/1/2 134/1/2 136/1/2
f 137/1/2 138/1/2 141/1/2
f 141/1/2 138/1/2 142/1/2
f 139/1/2 140/1/2 143/1/2
f 143/1/2 140/1/2 144/1/2
f 145/1/2 146/1/2 147/1/2
f 147/1/2 146/1/2 148/1/2
f 149/1/2 150/1/2 151/1/2
f 151/1/2 150/1/2 152/1/2
f 149/1/2 151/1/2 153/1/2
f 152/1/2 150/1/2 154/1/2
f 149/1/2 153/1/2 155/1/2
f 153/1/2 154/1/2 155/1/2
f 154/1/2 150/1/2 156/1/2
f 155/1/2 154/1/2 156/1/2
f 157/1/2 158/1/2 159/1/2
f 159/1/2 158/1/2 160/1/2
f 163/1/3 162/1/3 161/1/3
f 164/1/3 162/1/3 163/1/3
f 167/1/3 166/1/3 165/1/3
f 168/1/3 166/1/3 167/1/3
f 169/1/3 167/1/3 165/1/3
f 170/1/3 166/1/3 168/1/3
f 171/1/3 169/1/3 165/1/3
f 171/1/3 170/1/3 169/1/3
f 172/1/3 166/1/3 170/1/3
f 172/1/3 170/1/3 171/1/3
f 175/1/3 174/1/3 173/1/3
f 176/1/3 174/1/3 175/1/3
f 181/1/3 178/1/3 177/1/3
f 182/1/3 178/1/3 181/1/3
f 183/1/3 180/1/3 179/1/3
f 184/1/3 180/1/3 183/1/3
f 187/1/3 186/1/3 185/1/3
f 188/1/3 186/1/3 187/1/3
f 193/1/3 190/1/3 189/1/3
f 194/1/3 190/1/3 193/1/3
f 195/1/3 192/1/3 191/1/3
f 196/1/3 192/1/3 195/1/3
f 199/1/3 198/1/3 197/1/3
f 200/1/3 198/1/3 199/1/3
f 203/2/3 202/2/3 201/2/3
f 204/2/3 202/2/3 203/2/3
f 207/1/3 206/1/3 205/1/3
f 208/1/3 206/1/3 207/1/3
f 212/2/3 210/2/3 209/2/3
f 215/2/3 212/2/3 211/2/3
f 216/2/3 210/2/3 212/2/3
f 216/2/3 212/2/3 215/2/3
f 217/2/3 210/2/3 216/2/3
f 218/2/3 215/2/3 214/2/3
f 218/2/3 214/2/3 213/2/3
f 218/2/3 216/2/3 215/2/3
f 219/2/3 216/2/3 218/2/3
f 220/2/3 216/2/3 219/2/3
f 221/2/3 216/2/3 220/2/3
f 222/2/3 220/2/3 219/2/3
f 223/2/3 220/2/3 222/2/3
f 224/2/3 222/2/3 219/2/3
f 227/2/3 224/2/3 219/2/3
f 227/2/3 225/2/3 224/2/3
f 228/2/3 225/2/3 227/2/3
f 230/2/3 228/2/3 227/2/3
f 230/2/3 229/2/3 228/2/3
f 230/2/3 227/2/3 226/2/3
f 231/2/3 229/2/3 230/2/3
f 232/2/3 229/2/3 231/2/3
f 233/2/3 229/2/3 232/2/3
f 235/2/3 233/2/3 232/2/3
f 235/2/3 234/2/3 233/2/3
f 236/2/3 234/2/3 235/2/3
f 237/2/3 234/2/3 236/2/3
f 238/2/3 234/2/3 237/2/3
f 239/2/4 240/2/4 242/2/4
f 241/2/4 242/2/4 245/2/4
f 242/2/4 240/2/4 246/2/4
f 245/2/4 242/2/4 246/2/4
f 246/2/4 240/2/4 247/2/4
f 244/2/4 245/2/4 248/2/4
f 243/2/4 244/2/4 248/2/4
f 245/2/4 246/2/4 248/2/4
f 248/2/4 246/2/4 249/2/4
f 249/2/4 246/2/4 250/2/4
f 250/2/4 246/2/4 251/2/4
f 249/2/4 250/2/4 252/2/4
f 252/2/4 250/2/4 253/2/4
f 249/2/4 252/2/4 254/2/4
f 249/2/4 254/2/4 257/2/4
f 254/2/4 255/2/4 257/2/4
f 257/2/4 255/2/4 258/2/4
f 257/2/4 258/2/4 260/2/4
f 258/2/4 259/2/4 260/2/4
f 256/2/4 257/2/4 260/2/4
f 260/2/4 259/2/4 261/2/4
f 261/2/4 259/2/4 262/2/4
f 262/2/4 259/2/4 263/2/4
f 262/2/4 263/2/4 265/2/4
f 263/2/4 264/2/4 265/2/4
f 265/2/4 264/2/4 266/2/4
f 266/2/4 264/2/4 267/2/4
f 267/2/4 264/2/4 268/2/4
f 269/1/4 270/1/4 271/1/4
f 271/1/4 270/1/4 272/1/4
f 273/2/4 274/2/4 275/2/4
f 275/2/4 274/2/4 276/2/4
f 277/1/4 278/1/4 279/1/4
f 279/1/4 278/1/4 280/1/4
f 281/1/4 282/1/4 283/1/4
f 283/1/4 282/1/4 284/1/4
f 285/1/4 286/1/4 287/1/4
f 287/1/4 286/1/4 288/1/4
f 289/1/4 290/1/4 294/1/4
f 293/1/4 294/1/4 295/1/4
f 294/1/4 290/1/4 296/1/4
f 295/1/4 294/1/4 296/1/4
f 296/1/4 290/1/4 297/1/4
f 297/1/4 290/1/4 298/1/4
f 291/1/4 292/1/4 299/1/4
f 299/1/4 292/1/4 300/1/4
f 301/1/4 302/1/4 303/1/4
f 303/1/4 302/1/4 304/1/4
f 305/1/4 306/1/4 307/1/4
f 307/1/4 306/1/4 308/1/4
f 305/1/4 307/1/4 309/1/4
f 308/1/4 306/1/4 310/1/4
f 305/1/4 309/1/4 311/1/4
f 309/1/4 310/1/4 311/1/4
f 310/1/4 306/1/4 312/1/4
f 311/1/4 310/1/4 312/1/4
f 313/1/4 314/1/4 315/1/4
f 315/1/4 314/1/4 316/1/4
f 319/1/5 318/1/5 317/1/5
f 320/1/5 318/1/5 319/1/5
f 323/1/5 322/1/5 321/1/5
f 324/1/5 322/1/5 323/1/5
f 325/1/5 323/1/5 321/1/5
f 326/1/5 323/1/5 325/1/5
f 327/1/5 322/1/5 324/1/5
f 328/1/5 322/1/5 327/1/5
f 331/1/5 330/1/5 329/1/5
f 332/1/5 330/1/5 331/1/5
f 333/1/5 331/1/5 329/1/5
f 334/1/5 330/1/5 332/1/5
f 335/1/5 333/1/5 329/1/5
f 335/1/5 334/1/5 333/1/5
f 336/1/5 330/1/5 334/1/5
f 336/1/5 334/1/5 335/1/5
f 339/1/5 338/1/5 337/1/5
f 340/1/5 338/1/5 339/1/5
f 345/1/5 342/1/5 341/1/5
f 346/1/5 342/1/5 345/1/5
f 347/1/5 344/1/5 343/1/5
f 348/1/5 344/1/5 347/1/5
f 351/1/5 350/1/5 349/1/5
f 352/1/5 350/1/5 351/1/5
f 357/2/5 354/2/5 353/2/5
f 358/2/5 354/2/5 357/2/5
f 359/2/5 356/2/5 355/2/5
f 360/2/5 356/2/5 359/2/5
f 365/2/5 362/2/5 361/2/5
f 366/2/5 362/2/5 365/2/5
f 367/2/5 364/2/5 363/2/5
f 368/2/5 364/2/5 367/2/5
f 369/1/6 370/1/6 371/1/6
f 371/1/6 370/1/6 372/1/6
f 373/1/6 374/1/6 377/1/6
f 377/1/6 374/1/6 378/1/6
f 375/1/6 376/1/6 379/1/6
f 379/1/6 376/1/6 380/1/6
f 381/1/6 382/1/6 383/1/6
f 383/1/6 382/1/6 384/1/6
f 385/1/6 386/1/6 387/1/6
f 387/1/6 386/1/6 388/1/6
f 385/1/6 387/1/6 389/1/6
f 388/1/6 386/1/6 390/1/6
f 385/1/6 389/1/6 391/1/6
f 389/1/6 390/1/6 391/1/6
f 390/1/6 386/1/6 392/1/6
f 391/1/6 390/1/6 392/1/6
f 393/1/6 394/1/6 395/1/6
f 395/1/6 394/1/6 396/1/6
f 393/1/6 395/1/6 397/1/6
f 396/1/6 394/1/6 398/1/6
f 393/1/6 397/1/6 399/1/6
f 397/1/6 398/1/6 399/1/6
f 398/1/6 394/1/6 400/1/6
f 399/1/6 398/1/6 400/1/6
f 401/1/6 402/1/6 403/1/6
f 403/1/6 402/1/6 404/1/6
f 404/1/6 402/1/6 405/1/6
f 405/1/6 402/1/6 406/1/6
f 406/1/6 402/1/6 407/1/6
f 407/1/6 402/1/6 408/1/6
f 404/1/6 405/1/6 409/1/6
f 409/1/6 405/1/6 410/1/6
f 406/1/6 407/1/6 411/1/6
f 411/1/6 407/1/6 412/1/6
f 401/1/6 403/1/6 417/1/6
f 413/1/6 414/1/6 418/1/6
f 418/1/6 414/1/6 419/1/6
f 415/1/6 416/1/6 420/1/6
f 420/1/6 416/1/6 421/1/6
f 408/1/6 402/1/6 422/1/6
f 418/1/6 419/1/6 423/1/6
f 421/1/6 422/1/6 423/1/6
f 420/1/6 421/1/6 423/1/6
f 419/1/6 420/1/6 423/1/6
f 401/1/6 417/1/6 423/1/6
f 417/1/6 418/1/6 423/1/6
f 422/1/6 402/1/6 424/1/6
f 423/1/6 422/1/6 424/1/6
f 425/1/6 426/1/6 431/1/6
f 427/2/6 428/2/6 432/2/6
f 432/2/6 428/2/6 433/2/6
f 429/1/6 430/1/6 434/1/6
f 425/1/6 431/1/6 435/1/6
f 434/1/6 430/1/6 438/1/6
f 425/1/6 435/1/6 439/1/6
f 439/1/6 435/1/6 440/1/6
f 436/2/6 437/2/6 441/2/6
f 441/2/6 437/2/6 442/2/6
f 438/1/6 430/1/6 443/1/6
f 443/1/6 430/1/6 444/1/6
f 445/2/6 446/2/6 447/2/6
f 447/2/6 446/2/6 448/2/6
f 449/2/6 450/2/6 453/2/6
f 453/2/6 450/2/6 454/2/6
f 451/2/6 452/2/6 455/2/6
f 455/2/6 452/2/6 456/2/6
f 457/2/6 458/2/6 461/2/6
f 461/2/6 458/2/6 462/2/6
f 459/2/6 460/2/6 463/2/6
f 463/2/6 460/2/6 464/2/6
f 465/2/6 466/2/6 469/2/6
f 469/2/6 466/2/6 470/2/6
f 467/2/6 468/2/6 471/2/6
f 471/2/6 468/2/6 472/2/6
