# MagicaVoxel @ Ephtracy

# material
mtllib lower.mtl
usemtl palette

# normals
vn -1 0 0
vn 1 0 0
vn 0 0 1
vn 0 0 -1
vn 0 -1 0
vn 0 1 0

# texcoords
vt 0.0605469 0.5
vt 0.0917969 0.5
vt 0.861328 0.5

# verts
v -19 14 2
v -19 14 -1
v -19 16 2
v -19 16 -1
v -14 3 5
v -14 3 2
v -14 3 -1
v -14 3 -4
v -14 4 5
v -14 4 2
v -14 4 -1
v -14 4 -4
v -13 9 6
v -13 9 -5
v -13 11 6
v -13 11 -5
v -13 14 2
v -13 14 -1
v -13 16 2
v -13 16 -1
v -13 17 6
v -13 17 -5
v -11 4 5
v -11 4 2
v -11 4 -1
v -11 4 -4
v -11 9 5
v -11 9 2
v -11 9 -1
v -11 9 -4
v -9 10 20
v -9 10 11
v -9 10 -10
v -9 10 -19
v -9 11 20
v -9 11 11
v -9 11 -10
v -9 11 -19
v -5 11 13
v -5 11 11
v -5 11 10
v -5 11 -9
v -5 11 -10
v -5 11 -12
v -5 12 13
v -5 12 12
v -5 12 10
v -5 12 9
v -5 12 -8
v -5 12 -9
v -5 12 -11
v -5 12 -12
v -5 13 12
v -5 13 10
v -5 13 9
v -5 13 8
v -5 13 -7
v -5 13 -8
v -5 13 -9
v -5 13 -11
v -5 14 10
v -5 14 9
v -5 14 8
v -5 14 6
v -5 14 -5
v -5 14 -7
v -5 14 -8
v -5 14 -9
v -5 15 9
v -5 15 6
v -5 15 -5
v -5 15 -8
v 5 15 3
v 5 15 -2
v 5 16 3
v 5 16 -2
v 8 13 4
v 8 13 3
v 8 13 -2
v 8 13 -3
v 8 16 3
v 8 16 -2
v 8 21 4
v 8 21 -3
v 13 12 3
v 13 12 -2
v 13 13 3
v 13 13 -2
v -9 3 5
v -9 3 2
v -9 3 -1
v -9 3 -4
v -9 4 5
v -9 4 2
v -9 4 -1
v -9 4 -4
v -8 4 5
v -8 4 2
v -8 4 -1
v -8 4 -4
v -8 9 5
v -8 9 2
v -8 9 -1
v -8 9 -4
v 0 10 20
v 0 10 11
v 0 10 -10
v 0 10 -19
v 0 11 20
v 0 11 13
v 0 11 11
v 0 11 10
v 0 11 -9
v 0 11 -10
v 0 11 -12
v 0 11 -19
v 0 12 13
v 0 12 12
v 0 12 10
v 0 12 9
v 0 12 -8
v 0 12 -9
v 0 12 -11
v 0 12 -12
v 0 13 12
v 0 13 10
v 0 13 9
v 0 13 8
v 0 13 -7
v 0 13 -8
v 0 13 -9
v 0 13 -11
v 0 14 10
v 0 14 9
v 0 14 8
v 0 14 6
v 0 14 -5
v 0 14 -7
v 0 14 -8
v 0 14 -9
v 0 15 9
v 0 15 6
v 0 15 -5
v 0 15 -8
v 2 9 6
v 2 9 -5
v 2 11 6
v 2 11 -5
v 2 12 3
v 2 12 -2
v 2 15 3
v 2 15 -2
v 2 17 6
v 2 17 -5
v 5 12 3
v 5 12 -2
v 5 13 3
v 5 13 -2
v 14 13 4
v 14 13 3
v 14 13 -2
v 14 13 -3
v 14 17 3
v 14 17 -2
v 14 21 4
v 14 21 -3
v 17 12 3
v 17 12 2
v 17 12 -1
v 17 12 -2
v 17 15 2
v 17 15 -1
v 17 17 3
v 17 17 -2
v 19 12 2
v 19 12 -1
v 19 15 2
v 19 15 -1
v -9 10 20
v -9 11 20
v 0 10 20
v 0 11 20
v -5 11 13
v -5 12 13
v 0 11 13
v 0 12 13
v -5 12 12
v -5 13 12
v 0 12 12
v 0 13 12
v -5 13 10
v -5 14 10
v 0 13 10
v 0 14 10
v -5 14 9
v -5 15 9
v 0 14 9
v 0 15 9
v -13 9 6
v -13 11 6
v -13 17 6
v -5 14 6
v -5 15 6
v 0 14 6
v 0 15 6
v 2 9 6
v 2 11 6
v 2 17 6
v -14 3 5
v -14 4 5
v -11 4 5
v -11 9 5
v -9 3 5
v -9 4 5
v -8 4 5
v -8 9 5
v 8 13 4
v 8 21 4
v 14 13 4
v 14 21 4
v 2 12 3
v 2 15 3
v 5 12 3
v 5 13 3
v 5 15 3
v 5 16 3
v 8 13 3
v 8 16 3
v 13 12 3
v 13 13 3
v 14 13 3
v 14 17 3
v 17 12 3
v 17 17 3
v -19 14 2
v -19 16 2
v -13 14 2
v -13 16 2
v 17 12 2
v 17 15 2
v 19 12 2
v 19 15 2
v -14 3 -1
v -14 4 -1
v -11 4 -1
v -11 9 -1
v -9 3 -1
v -9 4 -1
v -8 4 -1
v -8 9 -1
v -5 13 -7
v -5 14 -7
v 0 13 -7
v 0 14 -7
v -5 12 -8
v -5 13 -8
v 0 12 -8
v 0 13 -8
v -5 11 -9
v -5 12 -9
v 0 11 -9
v 0 12 -9
v -9 10 -10
v -9 11 -10
v -5 11 -10
v 0 10 -10
v 0 11 -10
v -9 10 11
v -9 11 11
v -5 11 11
v 0 10 11
v 0 11 11
v -5 11 10
v -5 12 10
v 0 11 10
v 0 12 10
v -5 12 9
v -5 13 9
v 0 12 9
v 0 13 9
v -5 13 8
v -5 14 8
v 0 13 8
v 0 14 8
v -14 3 2
v -14 4 2
v -11 4 2
v -11 9 2
v -9 3 2
v -9 4 2
v -8 4 2
v -8 9 2
v -19 14 -1
v -19 16 -1
v -13 14 -1
v -13 16 -1
v 17 12 -1
v 17 15 -1
v 19 12 -1
v 19 15 -1
v 2 12 -2
v 2 15 -2
v 5 12 -2
v 5 13 -2
v 5 15 -2
v 5 16 -2
v 8 13 -2
v 8 16 -2
v 13 12 -2
v 13 13 -2
v 14 13 -2
v 14 17 -2
v 17 12 -2
v 17 17 -2
v 8 13 -3
v 8 21 -3
v 14 13 -3
v 14 21 -3
v -14 3 -4
v -14 4 -4
v -11 4 -4
v -11 9 -4
v -9 3 -4
v -9 4 -4
v -8 4 -4
v -8 9 -4
v -13 9 -5
v -13 11 -5
v -13 17 -5
v -5 14 -5
v -5 15 -5
v 0 14 -5
v 0 15 -5
v 2 9 -5
v 2 11 -5
v 2 17 -5
v -5 14 -8
v -5 15 -8
v 0 14 -8
v 0 15 -8
v -5 13 -9
v -5 14 -9
v 0 13 -9
v 0 14 -9
v -5 12 -11
v -5 13 -11
v 0 12 -11
v 0 13 -11
v -5 11 -12
v -5 12 -12
v 0 11 -12
v 0 12 -12
v -9 10 -19
v -9 11 -19
v 0 10 -19
v 0 11 -19
v -14 3 5
v -9 3 5
v -14 3 2
v -9 3 2
v -14 3 -1
v -9 3 -1
v -14 3 -4
v -9 3 -4
v -9 4 5
v -8 4 5
v -9 4 2
v -8 4 2
v -9 4 -1
v -8 4 -1
v -9 4 -4
v -8 4 -4
v -13 9 6
v 2 9 6
v -11 9 5
v -8 9 5
v -11 9 2
v -8 9 2
v -11 9 -1
v -8 9 -1
v -11 9 -4
v -8 9 -4
v -13 9 -5
v 2 9 -5
v -9 10 20
v 0 10 20
v -9 10 11
v 0 10 11
v -9 10 -10
v 0 10 -10
v -9 10 -19
v 0 10 -19
v -5 11 11
v 0 11 11
v -5 11 10
v 0 11 10
v -5 11 -9
v 0 11 -9
v -5 11 -10
v 0 11 -10
v -5 12 10
v 0 12 10
v -5 12 9
v 0 12 9
v 2 12 3
v 5 12 3
v 13 12 3
v 17 12 3
v 17 12 2
v 19 12 2
v 17 12 -1
v 19 12 -1
v 2 12 -2
v 5 12 -2
v 13 12 -2
v 17 12 -2
v -5 12 -8
v 0 12 -8
v -5 12 -9
v 0 12 -9
v -5 13 9
v 0 13 9
v -5 13 8
v 0 13 8
v 8 13 4
v 14 13 4
v 5 13 3
v 8 13 3
v 13 13 3
v 14 13 3
v 5 13 -2
v 8 13 -2
v 13 13 -2
v 14 13 -2
v 8 13 -3
v 14 13 -3
v -5 13 -7
v 0 13 -7
v -5 13 -8
v 0 13 -8
v -5 14 8
v 0 14 8
v -5 14 6
v 0 14 6
v -19 14 2
v -13 14 2
v -19 14 -1
v -13 14 -1
v -5 14 -5
v 0 14 -5
v -5 14 -7
v 0 14 -7
v -14 4 5
v -11 4 5
v -14 4 2
v -11 4 2
v -14 4 -1
v -11 4 -1
v -14 4 -4
v -11 4 -4
v -9 11 20
v 0 11 20
v -5 11 13
v 0 11 13
v -9 11 11
v -5 11 11
v -9 11 -10
v -5 11 -10
v -5 11 -12
v 0 11 -12
v -9 11 -19
v 0 11 -19
v -5 12 13
v 0 12 13
v -5 12 12
v 0 12 12
v -5 12 -11
v 0 12 -11
v -5 12 -12
v 0 12 -12
v -5 13 12
v 0 13 12
v -5 13 10
v 0 13 10
v -5 13 -9
v 0 13 -9
v -5 13 -11
v 0 13 -11
v -5 14 10
v 0 14 10
v -5 14 9
v 0 14 9
v -5 14 -8
v 0 14 -8
v -5 14 -9
v 0 14 -9
v -5 15 9
v 0 15 9
v -5 15 6
v 0 15 6
v 2 15 3
v 5 15 3
v 17 15 2
v 19 15 2
v 17 15 -1
v 19 15 -1
v 2 15 -2
v 5 15 -2
v -5 15 -5
v 0 15 -5
v -5 15 -8
v 0 15 -8
v 5 16 3
v 8 16 3
v -19 16 2
v -13 16 2
v -19 16 -1
v -13 16 -1
v 5 16 -2
v 8 16 -2
v -13 17 6
v 2 17 6
v 14 17 3
v 17 17 3
v 14 17 -2
v 17 17 -2
v -13 17 -5
v 2 17 -5
v 8 21 4
v 14 21 4
v 8 21 -3
v 14 21 -3

# faces
f 3/3/1 2/3/1 1/3/1
f 4/3/1 2/3/1 3/3/1
f 9/2/1 6/2/1 5/2/1
f 10/2/1 6/2/1 9/2/1
f 11/2/1 8/2/1 7/2/1
f 12/2/1 8/2/1 11/2/1
f 15/1/1 14/1/1 13/1/1
f 16/1/1 14/1/1 15/1/1
f 17/3/1 16/3/1 15/3/1
f 18/3/1 16/3/1 17/3/1
f 19/3/1 17/3/1 15/3/1
f 20/3/1 16/3/1 18/3/1
f 21/3/1 19/3/1 15/3/1
f 21/3/1 20/3/1 19/3/1
f 22/3/1 16/3/1 20/3/1
f 22/3/1 20/3/1 21/3/1
f 27/1/1 24/1/1 23/1/1
f 28/1/1 24/1/1 27/1/1
f 29/1/1 26/1/1 25/1/1
f 30/1/1 26/1/1 29/1/1
f 35/3/1 32/3/1 31/3/1
f 36/3/1 32/3/1 35/3/1
f 37/3/1 34/3/1 33/3/1
f 38/3/1 34/3/1 37/3/1
f 45/3/1 40/3/1 39/3/1
f 45/3/1 41/3/1 40/3/1
f 46/3/1 41/3/1 45/3/1
f 47/3/1 41/3/1 46/3/1
f 50/3/1 44/3/1 43/3/1
f 50/3/1 43/3/1 42/3/1
f 51/3/1 44/3/1 50/3/1
f 52/3/1 44/3/1 51/3/1
f 53/3/1 48/3/1 47/3/1
f 53/3/1 47/3/1 46/3/1
f 54/3/1 48/3/1 53/3/1
f 55/3/1 48/3/1 54/3/1
f 58/3/1 51/3/1 50/3/1
f 58/3/1 50/3/1 49/3/1
f 59/3/1 51/3/1 58/3/1
f 60/3/1 51/3/1 59/3/1
f 61/3/1 56/3/1 55/3/1
f 61/3/1 55/3/1 54/3/1
f 62/3/1 56/3/1 61/3/1
f 63/3/1 56/3/1 62/3/1
f 66/3/1 59/3/1 58/3/1
f 66/3/1 58/3/1 57/3/1
f 67/3/1 59/3/1 66/3/1
f 68/3/1 59/3/1 67/3/1
f 69/3/1 64/3/1 63/3/1
f 69/3/1 63/3/1 62/3/1
f 70/3/1 64/3/1 69/3/1
f 71/3/1 67/3/1 66/3/1
f 71/3/1 66/3/1 65/3/1
f 72/3/1 67/3/1 71/3/1
f 75/1/1 74/1/1 73/1/1
f 76/1/1 74/1/1 75/1/1
f 81/1/1 78/1/1 77/1/1
f 82/1/1 80/1/1 79/1/1
f 83/1/1 81/1/1 77/1/1
f 83/1/1 82/1/1 81/1/1
f 84/1/1 80/1/1 82/1/1
f 84/1/1 82/1/1 83/1/1
f 87/2/1 86/2/1 85/2/1
f 88/2/1 86/2/1 87/2/1
f 89/2/2 90/2/2 93/2/2
f 93/2/2 90/2/2 94/2/2
f 91/2/2 92/2/2 95/2/2
f 95/2/2 92/2/2 96/2/2
f 97/1/2 98/1/2 101/1/2
f 101/1/2 98/1/2 102/1/2
f 99/1/2 100/1/2 103/1/2
f 103/1/2 100/1/2 104/1/2
f 105/3/2 106/3/2 109/3/2
f 109/3/2 106/3/2 110/3/2
f 110/3/2 106/3/2 111/3/2
f 107/3/2 108/3/2 114/3/2
f 114/3/2 108/3/2 115/3/2
f 115/3/2 108/3/2 116/3/2
f 111/3/2 112/3/2 117/3/2
f 110/3/2 111/3/2 117/3/2
f 117/3/2 112/3/2 118/3/2
f 118/3/2 112/3/2 119/3/2
f 114/3/2 115/3/2 122/3/2
f 113/3/2 114/3/2 122/3/2
f 122/3/2 115/3/2 123/3/2
f 123/3/2 115/3/2 124/3/2
f 119/3/2 120/3/2 125/3/2
f 118/3/2 119/3/2 125/3/2
f 125/3/2 120/3/2 126/3/2
f 126/3/2 120/3/2 127/3/2
f 122/3/2 123/3/2 130/3/2
f 121/3/2 122/3/2 130/3/2
f 130/3/2 123/3/2 131/3/2
f 131/3/2 123/3/2 132/3/2
f 127/3/2 128/3/2 133/3/2
f 126/3/2 127/3/2 133/3/2
f 133/3/2 128/3/2 134/3/2
f 134/3/2 128/3/2 135/3/2
f 130/3/2 131/3/2 138/3/2
f 129/3/2 130/3/2 138/3/2
f 138/3/2 131/3/2 139/3/2
f 139/3/2 131/3/2 140/3/2
f 135/3/2 136/3/2 141/3/2
f 134/3/2 135/3/2 141/3/2
f 141/3/2 136/3/2 142/3/2
f 138/3/2 139/3/2 143/3/2
f 137/3/2 138/3/2 143/3/2
f 143/3/2 139/3/2 144/3/2
f 145/1/2 146/1/2 147/1/2
f 147/1/2 146/1/2 148/1/2
f 147/3/2 148/3/2 149/3/2
f 149/3/2 148/3/2 150/3/2
f 147/3/2 149/3/2 151/3/2
f 150/3/2 148/3/2 152/3/2
f 147/3/2 151/3/2 153/3/2
f 151/3/2 152/3/2 153/3/2
f 152/3/2 148/3/2 154/3/2
f 153/3/2 152/3/2 154/3/2
f 155/1/2 156/1/2 157/1/2
f 157/1/2 156/1/2 158/1/2
f 159/1/2 160/1/2 163/1/2
f 161/1/2 162/1/2 164/1/2
f 159/1/2 163/1/2 165/1/2
f 163/1/2 164/1/2 165/1/2
f 164/1/2 162/1/2 166/1/2
f 165/1/2 164/1/2 166/1/2
f 167/2/2 168/2/2 171/2/2
f 169/2/2 170/2/2 172/2/2
f 167/2/2 171/2/2 173/2/2
f 171/2/2 172/2/2 173/2/2
f 172/2/2 170/2/2 174/2/2
f 173/2/2 172/2/2 174/2/2
f 175/2/2 176/2/2 177/2/2
f 177/2/2 176/2/2 178/2/2
f 181/3/3 180/3/3 179/3/3
f 182/3/3 180/3/3 181/3/3
f 185/3/3 184/3/3 183/3/3
f 186/3/3 184/3/3 185/3/3
f 189/3/3 188/3/3 187/3/3
f 190/3/3 188/3/3 189/3/3
f 193/3/3 192/3/3 191/3/3
f 194/3/3 192/3/3 193/3/3
f 197/3/3 196/3/3 195/3/3
f 198/3/3 196/3/3 197/3/3
f 202/3/3 201/3/3 200/3/3
f 203/3/3 201/3/3 202/3/3
f 204/3/3 202/3/3 200/3/3
f 205/3/3 201/3/3 203/3/3
f 206/1/3 200/1/3 199/1/3
f 207/3/3 205/3/3 204/3/3
f 207/1/3 200/1/3 206/1/3
f 207/3/3 204/3/3 200/3/3
f 208/3/3 201/3/3 205/3/3
f 208/3/3 205/3/3 207/3/3
f 211/2/3 210/2/3 209/2/3
f 213/2/3 211/2/3 209/2/3
f 214/1/3 212/1/3 211/1/3
f 214/2/3 211/2/3 213/2/3
f 215/1/3 212/1/3 214/1/3
f 216/1/3 212/1/3 215/1/3
f 219/1/3 218/1/3 217/1/3
f 220/1/3 218/1/3 219/1/3
f 223/1/3 222/1/3 221/1/3
f 224/1/3 222/1/3 223/1/3
f 225/1/3 222/1/3 224/1/3
f 227/1/3 226/1/3 225/1/3
f 227/1/3 225/1/3 224/1/3
f 228/1/3 226/1/3 227/1/3
f 231/2/3 230/2/3 229/2/3
f 233/2/3 231/2/3 229/2/3
f 233/2/3 232/2/3 231/2/3
f 234/2/3 232/2/3 233/2/3
f 237/3/3 236/3/3 235/3/3
f 238/3/3 236/3/3 237/3/3
f 241/2/3 240/2/3 239/2/3
f 242/2/3 240/2/3 241/2/3
f 245/2/3 244/2/3 243/2/3
f 247/2/3 245/2/3 243/2/3
f 248/1/3 246/1/3 245/1/3
f 248/2/3 245/2/3 247/2/3
f 249/1/3 246/1/3 248/1/3
f 250/1/3 246/1/3 249/1/3
f 253/3/3 252/3/3 251/3/3
f 254/3/3 252/3/3 253/3/3
f 257/3/3 256/3/3 255/3/3
f 258/3/3 256/3/3 257/3/3
f 261/3/3 260/3/3 259/3/3
f 262/3/3 260/3/3 261/3/3
f 265/3/3 264/3/3 263/3/3
f 266/3/3 265/3/3 263/3/3
f 267/3/3 265/3/3 266/3/3
f 268/3/4 269/3/4 270/3/4
f 268/3/4 270/3/4 271/3/4
f 271/3/4 270/3/4 272/3/4
f 273/3/4 274/3/4 275/3/4
f 275/3/4 274/3/4 276/3/4
f 277/3/4 278/3/4 279/3/4
f 279/3/4 278/3/4 280/3/4
f 281/3/4 282/3/4 283/3/4
f 283/3/4 282/3/4 284/3/4
f 285/2/4 286/2/4 287/2/4
f 285/2/4 287/2/4 289/2/4
f 287/1/4 288/1/4 290/1/4
f 289/2/4 287/2/4 290/2/4
f 290/1/4 288/1/4 291/1/4
f 291/1/4 288/1/4 292/1/4
f 293/3/4 294/3/4 295/3/4
f 295/3/4 294/3/4 296/3/4
f 297/2/4 298/2/4 299/2/4
f 299/2/4 298/2/4 300/2/4
f 301/1/4 302/1/4 303/1/4
f 303/1/4 302/1/4 304/1/4
f 304/1/4 302/1/4 305/1/4
f 305/1/4 306/1/4 307/1/4
f 304/1/4 305/1/4 307/1/4
f 307/1/4 306/1/4 308/1/4
f 309/2/4 310/2/4 311/2/4
f 309/2/4 311/2/4 313/2/4
f 311/2/4 312/2/4 313/2/4
f 313/2/4 312/2/4 314/2/4
f 315/1/4 316/1/4 317/1/4
f 317/1/4 316/1/4 318/1/4
f 319/2/4 320/2/4 321/2/4
f 319/2/4 321/2/4 323/2/4
f 321/1/4 322/1/4 324/1/4
f 323/2/4 321/2/4 324/2/4
f 324/1/4 322/1/4 325/1/4
f 325/1/4 322/1/4 326/1/4
f 328/3/4 329/3/4 330/3/4
f 330/3/4 329/3/4 331/3/4
f 328/3/4 330/3/4 332/3/4
f 331/3/4 329/3/4 333/3/4
f 327/1/4 328/1/4 334/1/4
f 332/3/4 333/3/4 335/3/4
f 334/1/4 328/1/4 335/1/4
f 328/3/4 332/3/4 335/3/4
f 333/3/4 329/3/4 336/3/4
f 335/3/4 333/3/4 336/3/4
f 337/3/4 338/3/4 339/3/4
f 339/3/4 338/3/4 340/3/4
f 341/3/4 342/3/4 343/3/4
f 343/3/4 342/3/4 344/3/4
f 345/3/4 346/3/4 347/3/4
f 347/3/4 346/3/4 348/3/4
f 349/3/4 350/3/4 351/3/4
f 351/3/4 350/3/4 352/3/4
f 353/3/4 354/3/4 355/3/4
f 355/3/4 354/3/4 356/3/4
f 359/2/5 358/2/5 357/2/5
f 360/2/5 358/2/5 359/2/5
f 363/2/5 362/2/5 361/2/5
f 364/2/5 362/2/5 363/2/5
f 367/1/5 366/1/5 365/1/5
f 368/1/5 366/1/5 367/1/5
f 371/1/5 370/1/5 369/1/5
f 372/1/5 370/1/5 371/1/5
f 375/1/5 374/1/5 373/1/5
f 376/1/5 374/1/5 375/1/5
f 377/1/5 375/1/5 373/1/5
f 378/1/5 374/1/5 376/1/5
f 379/1/5 377/1/5 373/1/5
f 379/1/5 378/1/5 377/1/5
f 380/1/5 374/1/5 378/1/5
f 380/1/5 378/1/5 379/1/5
f 381/1/5 379/1/5 373/1/5
f 382/1/5 374/1/5 380/1/5
f 383/1/5 381/1/5 373/1/5
f 383/1/5 382/1/5 381/1/5
f 384/1/5 374/1/5 382/1/5
f 384/1/5 382/1/5 383/1/5
f 387/3/5 386/3/5 385/3/5
f 388/3/5 386/3/5 387/3/5
f 391/3/5 390/3/5 389/3/5
f 392/3/5 390/3/5 391/3/5
f 395/3/5 394/3/5 393/3/5
f 396/3/5 394/3/5 395/3/5
f 399/3/5 398/3/5 397/3/5
f 400/3/5 398/3/5 399/3/5
f 403/3/5 402/3/5 401/3/5
f 404/3/5 402/3/5 403/3/5
f 409/2/5 408/2/5 407/2/5
f 411/2/5 409/2/5 407/2/5
f 411/2/5 410/2/5 409/2/5
f 412/2/5 410/2/5 411/2/5
f 413/1/5 406/1/5 405/1/5
f 414/1/5 406/1/5 413/1/5
f 415/2/5 411/2/5 407/2/5
f 416/2/5 411/2/5 415/2/5
f 419/3/5 418/3/5 417/3/5
f 420/3/5 418/3/5 419/3/5
f 423/3/5 422/3/5 421/3/5
f 424/3/5 422/3/5 423/3/5
f 428/1/5 426/1/5 425/1/5
f 429/1/5 426/1/5 428/1/5
f 430/1/5 426/1/5 429/1/5
f 431/1/5 428/1/5 427/1/5
f 431/1/5 429/1/5 428/1/5
f 432/1/5 429/1/5 431/1/5
f 433/1/5 429/1/5 432/1/5
f 435/1/5 434/1/5 433/1/5
f 435/1/5 433/1/5 432/1/5
f 436/1/5 434/1/5 435/1/5
f 439/3/5 438/3/5 437/3/5
f 440/3/5 438/3/5 439/3/5
f 443/3/5 442/3/5 441/3/5
f 444/3/5 442/3/5 443/3/5
f 447/3/5 446/3/5 445/3/5
f 448/3/5 446/3/5 447/3/5
f 451/3/5 450/3/5 449/3/5
f 452/3/5 450/3/5 451/3/5
f 453/2/6 454/2/6 455/2/6
f 455/2/6 454/2/6 456/2/6
f 457/2/6 458/2/6 459/2/6
f 459/2/6 458/2/6 460/2/6
f 461/3/6 462/3/6 463/3/6
f 463/3/6 462/3/6 464/3/6
f 461/3/6 463/3/6 465/3/6
f 465/3/6 463/3/6 466/3/6
f 467/3/6 468/3/6 469/3/6
f 467/3/6 469/3/6 471/3/6
f 469/3/6 470/3/6 471/3/6
f 471/3/6 470/3/6 472/3/6
f 473/3/6 474/3/6 475/3/6
f 475/3/6 474/3/6 476/3/6
f 477/3/6 478/3/6 479/3/6
f 479/3/6 478/3/6 480/3/6
f 481/3/6 482/3/6 483/3/6
f 483/3/6 482/3/6 484/3/6
f 485/3/6 486/3/6 487/3/6
f 487/3/6 486/3/6 488/3/6
f 489/3/6 490/3/6 491/3/6
f 491/3/6 490/3/6 492/3/6
f 493/3/6 494/3/6 495/3/6
f 495/3/6 494/3/6 496/3/6
f 497/3/6 498/3/6 499/3/6
f 499/3/6 498/3/6 500/3/6
f 503/2/6 504/2/6 505/2/6
f 505/2/6 504/2/6 506/2/6
f 501/1/6 502/1/6 507/1/6
f 507/1/6 502/1/6 508/1/6
f 509/3/6 510/3/6 511/3/6
f 511/3/6 510/3/6 512/3/6
f 515/3/6 516/3/6 517/3/6
f 517/3/6 516/3/6 518/3/6
f 513/1/6 514/1/6 519/1/6
f 519/1/6 514/1/6 520/1/6
f 523/2/6 524/2/6 525/2/6
f 525/2/6 524/2/6 526/2/6
f 521/3/6 522/3/6 527/3/6
f 527/3/6 522/3/6 528/3/6
f 529/1/6 530/1/6 531/1/6
f 531/1/6 530/1/6 532/1/6
