# MagicaVoxel @ Ephtracy

# material
mtllib upper2.mtl
usemtl palette

# normals
vn -1 0 0
vn 1 0 0
vn 0 0 1
vn 0 0 -1
vn 0 -1 0
vn 0 1 0

# texcoords
vt 0.0605469 0.5
vt 0.0917969 0.5
vt 0.861328 0.5

# verts
v -19 14 2
v -19 14 -1
v -19 16 2
v -19 16 -1
v -14 3 5
v -14 3 2
v -14 3 -1
v -14 3 -4
v -14 4 5
v -14 4 2
v -14 4 -1
v -14 4 -4
v -13 9 6
v -13 9 -5
v -13 11 6
v -13 11 -5
v -13 14 2
v -13 14 -1
v -13 16 2
v -13 16 -1
v -13 17 6
v -13 17 -5
v -11 4 5
v -11 4 2
v -11 4 -1
v -11 4 -4
v -11 9 5
v -11 9 2
v -11 9 -1
v -11 9 -4
v -9 17 20
v -9 17 11
v -9 17 -10
v -9 17 -19
v -9 18 20
v -9 18 11
v -9 18 -10
v -9 18 -19
v -5 14 9
v -5 14 6
v -5 14 -5
v -5 14 -8
v -5 15 10
v -5 15 9
v -5 15 8
v -5 15 6
v -5 15 -5
v -5 15 -7
v -5 15 -8
v -5 15 -9
v -5 16 12
v -5 16 10
v -5 16 9
v -5 16 8
v -5 16 -7
v -5 16 -8
v -5 16 -9
v -5 16 -11
v -5 17 12
v -5 17 11
v -5 17 9
v -5 17 -8
v -5 17 -10
v -5 17 -11
v 5 15 3
v 5 15 -2
v 5 16 3
v 5 16 -2
v 8 13 4
v 8 13 3
v 8 13 -2
v 8 13 -3
v 8 16 3
v 8 16 -2
v 8 21 4
v 8 21 -3
v 13 12 3
v 13 12 -2
v 13 13 3
v 13 13 -2
v -9 3 5
v -9 3 2
v -9 3 -1
v -9 3 -4
v -9 4 5
v -9 4 2
v -9 4 -1
v -9 4 -4
v -8 4 5
v -8 4 2
v -8 4 -1
v -8 4 -4
v -8 9 5
v -8 9 2
v -8 9 -1
v -8 9 -4
v 0 14 9
v 0 14 6
v 0 14 -5
v 0 14 -8
v 0 15 10
v 0 15 9
v 0 15 8
v 0 15 6
v 0 15 -5
v 0 15 -7
v 0 15 -8
v 0 15 -9
v 0 16 12
v 0 16 10
v 0 16 9
v 0 16 8
v 0 16 -7
v 0 16 -8
v 0 16 -9
v 0 16 -11
v 0 17 20
v 0 17 12
v 0 17 11
v 0 17 9
v 0 17 -8
v 0 17 -10
v 0 17 -11
v 0 17 -19
v 0 18 20
v 0 18 11
v 0 18 -10
v 0 18 -19
v 2 9 6
v 2 9 -5
v 2 11 6
v 2 11 -5
v 2 12 3
v 2 12 -2
v 2 15 3
v 2 15 -2
v 2 17 6
v 2 17 -5
v 5 12 3
v 5 12 -2
v 5 13 3
v 5 13 -2
v 14 13 4
v 14 13 3
v 14 13 -2
v 14 13 -3
v 14 17 3
v 14 17 -2
v 14 21 4
v 14 21 -3
v 17 12 3
v 17 12 2
v 17 12 -1
v 17 12 -2
v 17 15 2
v 17 15 -1
v 17 17 3
v 17 17 -2
v 19 12 2
v 19 12 -1
v 19 15 2
v 19 15 -1
v -9 17 20
v -9 18 20
v 0 17 20
v 0 18 20
v -5 16 12
v -5 17 12
v 0 16 12
v 0 17 12
v -5 15 10
v -5 16 10
v 0 15 10
v 0 16 10
v -5 14 9
v -5 15 9
v 0 14 9
v 0 15 9
v -13 9 6
v -13 11 6
v -13 17 6
v -5 14 6
v -5 15 6
v 0 14 6
v 0 15 6
v 2 9 6
v 2 11 6
v 2 17 6
v -14 3 5
v -14 4 5
v -11 4 5
v -11 9 5
v -9 3 5
v -9 4 5
v -8 4 5
v -8 9 5
v 8 13 4
v 8 21 4
v 14 13 4
v 14 21 4
v 2 12 3
v 2 15 3
v 5 12 3
v 5 13 3
v 5 15 3
v 5 16 3
v 8 13 3
v 8 16 3
v 13 12 3
v 13 13 3
v 14 13 3
v 14 17 3
v 17 12 3
v 17 17 3
v -19 14 2
v -19 16 2
v -13 14 2
v -13 16 2
v 17 12 2
v 17 15 2
v 19 12 2
v 19 15 2
v -14 3 -1
v -14 4 -1
v -11 4 -1
v -11 9 -1
v -9 3 -1
v -9 4 -1
v -8 4 -1
v -8 9 -1
v -5 15 -7
v -5 16 -7
v 0 15 -7
v 0 16 -7
v -5 16 -8
v -5 17 -8
v 0 16 -8
v 0 17 -8
v -9 17 -10
v -9 18 -10
v -5 17 -10
v 0 17 -10
v 0 18 -10
v -9 17 11
v -9 18 11
v -5 17 11
v 0 17 11
v 0 18 11
v -5 16 9
v -5 17 9
v 0 16 9
v 0 17 9
v -5 15 8
v -5 16 8
v 0 15 8
v 0 16 8
v -14 3 2
v -14 4 2
v -11 4 2
v -11 9 2
v -9 3 2
v -9 4 2
v -8 4 2
v -8 9 2
v -19 14 -1
v -19 16 -1
v -13 14 -1
v -13 16 -1
v 17 12 -1
v 17 15 -1
v 19 12 -1
v 19 15 -1
v 2 12 -2
v 2 15 -2
v 5 12 -2
v 5 13 -2
v 5 15 -2
v 5 16 -2
v 8 13 -2
v 8 16 -2
v 13 12 -2
v 13 13 -2
v 14 13 -2
v 14 17 -2
v 17 12 -2
v 17 17 -2
v 8 13 -3
v 8 21 -3
v 14 13 -3
v 14 21 -3
v -14 3 -4
v -14 4 -4
v -11 4 -4
v -11 9 -4
v -9 3 -4
v -9 4 -4
v -8 4 -4
v -8 9 -4
v -13 9 -5
v -13 11 -5
v -13 17 -5
v -5 14 -5
v -5 15 -5
v 0 14 -5
v 0 15 -5
v 2 9 -5
v 2 11 -5
v 2 17 -5
v -5 14 -8
v -5 15 -8
v 0 14 -8
v 0 15 -8
v -5 15 -9
v -5 16 -9
v 0 15 -9
v 0 16 -9
v -5 16 -11
v -5 17 -11
v 0 16 -11
v 0 17 -11
v -9 17 -19
v -9 18 -19
v 0 17 -19
v 0 18 -19
v -14 3 5
v -9 3 5
v -14 3 2
v -9 3 2
v -14 3 -1
v -9 3 -1
v -14 3 -4
v -9 3 -4
v -9 4 5
v -8 4 5
v -9 4 2
v -8 4 2
v -9 4 -1
v -8 4 -1
v -9 4 -4
v -8 4 -4
v -13 9 6
v 2 9 6
v -11 9 5
v -8 9 5
v -11 9 2
v -8 9 2
v -11 9 -1
v -8 9 -1
v -11 9 -4
v -8 9 -4
v -13 9 -5
v 2 9 -5
v 2 12 3
v 5 12 3
v 13 12 3
v 17 12 3
v 17 12 2
v 19 12 2
v 17 12 -1
v 19 12 -1
v 2 12 -2
v 5 12 -2
v 13 12 -2
v 17 12 -2
v 8 13 4
v 14 13 4
v 5 13 3
v 8 13 3
v 13 13 3
v 14 13 3
v 5 13 -2
v 8 13 -2
v 13 13 -2
v 14 13 -2
v 8 13 -3
v 14 13 -3
v -5 14 9
v 0 14 9
v -5 14 6
v 0 14 6
v -19 14 2
v -13 14 2
v -19 14 -1
v -13 14 -1
v -5 14 -5
v 0 14 -5
v -5 14 -8
v 0 14 -8
v -5 15 10
v 0 15 10
v -5 15 9
v 0 15 9
v -5 15 -8
v 0 15 -8
v -5 15 -9
v 0 15 -9
v -5 16 12
v 0 16 12
v -5 16 10
v 0 16 10
v -5 16 -9
v 0 16 -9
v -5 16 -11
v 0 16 -11
v -9 17 20
v 0 17 20
v -5 17 12
v 0 17 12
v -9 17 11
v -5 17 11
v -9 17 -10
v -5 17 -10
v -5 17 -11
v 0 17 -11
v -9 17 -19
v 0 17 -19
v -14 4 5
v -11 4 5
v -14 4 2
v -11 4 2
v -14 4 -1
v -11 4 -1
v -14 4 -4
v -11 4 -4
v -5 15 8
v 0 15 8
v -5 15 6
v 0 15 6
v 2 15 3
v 5 15 3
v 17 15 2
v 19 15 2
v 17 15 -1
v 19 15 -1
v 2 15 -2
v 5 15 -2
v -5 15 -5
v 0 15 -5
v -5 15 -7
v 0 15 -7
v -5 16 9
v 0 16 9
v -5 16 8
v 0 16 8
v 5 16 3
v 8 16 3
v -19 16 2
v -13 16 2
v -19 16 -1
v -13 16 -1
v 5 16 -2
v 8 16 -2
v -5 16 -7
v 0 16 -7
v -5 16 -8
v 0 16 -8
v -5 17 11
v 0 17 11
v -5 17 9
v 0 17 9
v -13 17 6
v 2 17 6
v 14 17 3
v 17 17 3
v 14 17 -2
v 17 17 -2
v -13 17 -5
v 2 17 -5
v -5 17 -8
v 0 17 -8
v -5 17 -10
v 0 17 -10
v -9 18 20
v 0 18 20
v -9 18 11
v 0 18 11
v -9 18 -10
v 0 18 -10
v -9 18 -19
v 0 18 -19
v 8 21 4
v 14 21 4
v 8 21 -3
v 14 21 -3

# faces
f 3/3/1 2/3/1 1/3/1
f 4/3/1 2/3/1 3/3/1
f 9/2/1 6/2/1 5/2/1
f 10/2/1 6/2/1 9/2/1
f 11/2/1 8/2/1 7/2/1
f 12/2/1 8/2/1 11/2/1
f 15/1/1 14/1/1 13/1/1
f 16/1/1 14/1/1 15/1/1
f 17/3/1 16/3/1 15/3/1
f 18/3/1 16/3/1 17/3/1
f 19/3/1 17/3/1 15/3/1
f 20/3/1 16/3/1 18/3/1
f 21/3/1 19/3/1 15/3/1
f 21/3/1 20/3/1 19/3/1
f 22/3/1 16/3/1 20/3/1
f 22/3/1 20/3/1 21/3/1
f 27/1/1 24/1/1 23/1/1
f 28/1/1 24/1/1 27/1/1
f 29/1/1 26/1/1 25/1/1
f 30/1/1 26/1/1 29/1/1
f 35/3/1 32/3/1 31/3/1
f 36/3/1 32/3/1 35/3/1
f 37/3/1 34/3/1 33/3/1
f 38/3/1 34/3/1 37/3/1
f 44/3/1 40/3/1 39/3/1
f 45/3/1 40/3/1 44/3/1
f 46/3/1 40/3/1 45/3/1
f 47/3/1 42/3/1 41/3/1
f 48/3/1 42/3/1 47/3/1
f 49/3/1 42/3/1 48/3/1
f 52/3/1 44/3/1 43/3/1
f 52/3/1 45/3/1 44/3/1
f 53/3/1 45/3/1 52/3/1
f 54/3/1 45/3/1 53/3/1
f 55/3/1 50/3/1 49/3/1
f 55/3/1 49/3/1 48/3/1
f 56/3/1 50/3/1 55/3/1
f 57/3/1 50/3/1 56/3/1
f 59/3/1 53/3/1 52/3/1
f 59/3/1 52/3/1 51/3/1
f 60/3/1 53/3/1 59/3/1
f 61/3/1 53/3/1 60/3/1
f 62/3/1 58/3/1 57/3/1
f 62/3/1 57/3/1 56/3/1
f 63/3/1 58/3/1 62/3/1
f 64/3/1 58/3/1 63/3/1
f 67/1/1 66/1/1 65/1/1
f 68/1/1 66/1/1 67/1/1
f 73/1/1 70/1/1 69/1/1
f 74/1/1 72/1/1 71/1/1
f 75/1/1 73/1/1 69/1/1
f 75/1/1 74/1/1 73/1/1
f 76/1/1 72/1/1 74/1/1
f 76/1/1 74/1/1 75/1/1
f 79/2/1 78/2/1 77/2/1
f 80/2/1 78/2/1 79/2/1
f 81/2/2 82/2/2 85/2/2
f 85/2/2 82/2/2 86/2/2
f 83/2/2 84/2/2 87/2/2
f 87/2/2 84/2/2 88/2/2
f 89/1/2 90/1/2 93/1/2
f 93/1/2 90/1/2 94/1/2
f 91/1/2 92/1/2 95/1/2
f 95/1/2 92/1/2 96/1/2
f 97/3/2 98/3/2 102/3/2
f 102/3/2 98/3/2 103/3/2
f 103/3/2 98/3/2 104/3/2
f 99/3/2 100/3/2 105/3/2
f 105/3/2 100/3/2 106/3/2
f 106/3/2 100/3/2 107/3/2
f 101/3/2 102/3/2 110/3/2
f 102/3/2 103/3/2 110/3/2
f 110/3/2 103/3/2 111/3/2
f 111/3/2 103/3/2 112/3/2
f 107/3/2 108/3/2 113/3/2
f 106/3/2 107/3/2 113/3/2
f 113/3/2 108/3/2 114/3/2
f 114/3/2 108/3/2 115/3/2
f 110/3/2 111/3/2 118/3/2
f 109/3/2 110/3/2 118/3/2
f 118/3/2 111/3/2 119/3/2
f 119/3/2 111/3/2 120/3/2
f 115/3/2 116/3/2 121/3/2
f 114/3/2 115/3/2 121/3/2
f 121/3/2 116/3/2 122/3/2
f 122/3/2 116/3/2 123/3/2
f 118/3/2 119/3/2 125/3/2
f 117/3/2 118/3/2 125/3/2
f 125/3/2 119/3/2 126/3/2
f 123/3/2 124/3/2 127/3/2
f 122/3/2 123/3/2 127/3/2
f 127/3/2 124/3/2 128/3/2
f 129/1/2 130/1/2 131/1/2
f 131/1/2 130/1/2 132/1/2
f 131/3/2 132/3/2 133/3/2
f 133/3/2 132/3/2 134/3/2
f 131/3/2 133/3/2 135/3/2
f 134/3/2 132/3/2 136/3/2
f 131/3/2 135/3/2 137/3/2
f 135/3/2 136/3/2 137/3/2
f 136/3/2 132/3/2 138/3/2
f 137/3/2 136/3/2 138/3/2
f 139/1/2 140/1/2 141/1/2
f 141/1/2 140/1/2 142/1/2
f 143/1/2 144/1/2 147/1/2
f 145/1/2 146/1/2 148/1/2
f 143/1/2 147/1/2 149/1/2
f 147/1/2 148/1/2 149/1/2
f 148/1/2 146/1/2 150/1/2
f 149/1/2 148/1/2 150/1/2
f 151/2/2 152/2/2 155/2/2
f 153/2/2 154/2/2 156/2/2
f 151/2/2 155/2/2 157/2/2
f 155/2/2 156/2/2 157/2/2
f 156/2/2 154/2/2 158/2/2
f 157/2/2 156/2/2 158/2/2
f 159/2/2 160/2/2 161/2/2
f 161/2/2 160/2/2 162/2/2
f 165/3/3 164/3/3 163/3/3
f 166/3/3 164/3/3 165/3/3
f 169/3/3 168/3/3 167/3/3
f 170/3/3 168/3/3 169/3/3
f 173/3/3 172/3/3 171/3/3
f 174/3/3 172/3/3 173/3/3
f 177/3/3 176/3/3 175/3/3
f 178/3/3 176/3/3 177/3/3
f 182/3/3 181/3/3 180/3/3
f 183/3/3 181/3/3 182/3/3
f 184/3/3 182/3/3 180/3/3
f 185/3/3 181/3/3 183/3/3
f 186/1/3 180/1/3 179/1/3
f 187/3/3 185/3/3 184/3/3
f 187/1/3 180/1/3 186/1/3
f 187/3/3 184/3/3 180/3/3
f 188/3/3 181/3/3 185/3/3
f 188/3/3 185/3/3 187/3/3
f 191/2/3 190/2/3 189/2/3
f 193/2/3 191/2/3 189/2/3
f 194/1/3 192/1/3 191/1/3
f 194/2/3 191/2/3 193/2/3
f 195/1/3 192/1/3 194/1/3
f 196/1/3 192/1/3 195/1/3
f 199/1/3 198/1/3 197/1/3
f 200/1/3 198/1/3 199/1/3
f 203/1/3 202/1/3 201/1/3
f 204/1/3 202/1/3 203/1/3
f 205/1/3 202/1/3 204/1/3
f 207/1/3 206/1/3 205/1/3
f 207/1/3 205/1/3 204/1/3
f 208/1/3 206/1/3 207/1/3
f 211/2/3 210/2/3 209/2/3
f 213/2/3 211/2/3 209/2/3
f 213/2/3 212/2/3 211/2/3
f 214/2/3 212/2/3 213/2/3
f 217/3/3 216/3/3 215/3/3
f 218/3/3 216/3/3 217/3/3
f 221/2/3 220/2/3 219/2/3
f 222/2/3 220/2/3 221/2/3
f 225/2/3 224/2/3 223/2/3
f 227/2/3 225/2/3 223/2/3
f 228/1/3 226/1/3 225/1/3
f 228/2/3 225/2/3 227/2/3
f 229/1/3 226/1/3 228/1/3
f 230/1/3 226/1/3 229/1/3
f 233/3/3 232/3/3 231/3/3
f 234/3/3 232/3/3 233/3/3
f 237/3/3 236/3/3 235/3/3
f 238/3/3 236/3/3 237/3/3
f 241/3/3 240/3/3 239/3/3
f 242/3/3 240/3/3 241/3/3
f 243/3/3 240/3/3 242/3/3
f 244/3/4 245/3/4 246/3/4
f 246/3/4 245/3/4 247/3/4
f 247/3/4 245/3/4 248/3/4
f 249/3/4 250/3/4 251/3/4
f 251/3/4 250/3/4 252/3/4
f 253/3/4 254/3/4 255/3/4
f 255/3/4 254/3/4 256/3/4
f 257/2/4 258/2/4 259/2/4
f 257/2/4 259/2/4 261/2/4
f 259/1/4 260/1/4 262/1/4
f 261/2/4 259/2/4 262/2/4
f 262/1/4 260/1/4 263/1/4
f 263/1/4 260/1/4 264/1/4
f 265/3/4 266/3/4 267/3/4
f 267/3/4 266/3/4 268/3/4
f 269/2/4 270/2/4 271/2/4
f 271/2/4 270/2/4 272/2/4
f 273/1/4 274/1/4 275/1/4
f 275/1/4 274/1/4 276/1/4
f 276/1/4 274/1/4 277/1/4
f 277/1/4 278/1/4 279/1/4
f 276/1/4 277/1/4 279/1/4
f 279/1/4 278/1/4 280/1/4
f 281/2/4 282/2/4 283/2/4
f 281/2/4 283/2/4 285/2/4
f 283/2/4 284/2/4 285/2/4
f 285/2/4 284/2/4 286/2/4
f 287/1/4 288/1/4 289/1/4
f 289/1/4 288/1/4 290/1/4
f 291/2/4 292/2/4 293/2/4
f 291/2/4 293/2/4 295/2/4
f 293/1/4 294/1/4 296/1/4
f 295/2/4 293/2/4 296/2/4
f 296/1/4 294/1/4 297/1/4
f 297/1/4 294/1/4 298/1/4
f 300/3/4 301/3/4 302/3/4
f 302/3/4 301/3/4 303/3/4
f 300/3/4 302/3/4 304/3/4
f 303/3/4 301/3/4 305/3/4
f 299/1/4 300/1/4 306/1/4
f 304/3/4 305/3/4 307/3/4
f 306/1/4 300/1/4 307/1/4
f 300/3/4 304/3/4 307/3/4
f 305/3/4 301/3/4 308/3/4
f 307/3/4 305/3/4 308/3/4
f 309/3/4 310/3/4 311/3/4
f 311/3/4 310/3/4 312/3/4
f 313/3/4 314/3/4 315/3/4
f 315/3/4 314/3/4 316/3/4
f 317/3/4 318/3/4 319/3/4
f 319/3/4 318/3/4 320/3/4
f 321/3/4 322/3/4 323/3/4
f 323/3/4 322/3/4 324/3/4
f 327/2/5 326/2/5 325/2/5
f 328/2/5 326/2/5 327/2/5
f 331/2/5 330/2/5 329/2/5
f 332/2/5 330/2/5 331/2/5
f 335/1/5 334/1/5 333/1/5
f 336/1/5 334/1/5 335/1/5
f 339/1/5 338/1/5 337/1/5
f 340/1/5 338/1/5 339/1/5
f 343/1/5 342/1/5 341/1/5
f 344/1/5 342/1/5 343/1/5
f 345/1/5 343/1/5 341/1/5
f 346/1/5 342/1/5 344/1/5
f 347/1/5 345/1/5 341/1/5
f 347/1/5 346/1/5 345/1/5
f 348/1/5 342/1/5 346/1/5
f 348/1/5 346/1/5 347/1/5
f 349/1/5 347/1/5 341/1/5
f 350/1/5 342/1/5 348/1/5
f 351/1/5 349/1/5 341/1/5
f 351/1/5 350/1/5 349/1/5
f 352/1/5 342/1/5 350/1/5
f 352/1/5 350/1/5 351/1/5
f 357/2/5 356/2/5 355/2/5
f 359/2/5 357/2/5 355/2/5
f 359/2/5 358/2/5 357/2/5
f 360/2/5 358/2/5 359/2/5
f 361/1/5 354/1/5 353/1/5
f 362/1/5 354/1/5 361/1/5
f 363/2/5 359/2/5 355/2/5
f 364/2/5 359/2/5 363/2/5
f 368/1/5 366/1/5 365/1/5
f 369/1/5 366/1/5 368/1/5
f 370/1/5 366/1/5 369/1/5
f 371/1/5 368/1/5 367/1/5
f 371/1/5 369/1/5 368/1/5
f 372/1/5 369/1/5 371/1/5
f 373/1/5 369/1/5 372/1/5
f 375/1/5 374/1/5 373/1/5
f 375/1/5 373/1/5 372/1/5
f 376/1/5 374/1/5 375/1/5
f 379/3/5 378/3/5 377/3/5
f 380/3/5 378/3/5 379/3/5
f 383/3/5 382/3/5 381/3/5
f 384/3/5 382/3/5 383/3/5
f 387/3/5 386/3/5 385/3/5
f 388/3/5 386/3/5 387/3/5
f 391/3/5 390/3/5 389/3/5
f 392/3/5 390/3/5 391/3/5
f 395/3/5 394/3/5 393/3/5
f 396/3/5 394/3/5 395/3/5
f 399/3/5 398/3/5 397/3/5
f 400/3/5 398/3/5 399/3/5
f 403/3/5 402/3/5 401/3/5
f 404/3/5 402/3/5 403/3/5
f 407/3/5 406/3/5 405/3/5
f 408/3/5 406/3/5 407/3/5
f 409/3/5 407/3/5 405/3/5
f 410/3/5 407/3/5 409/3/5
f 413/3/5 412/3/5 411/3/5
f 415/3/5 413/3/5 411/3/5
f 415/3/5 414/3/5 413/3/5
f 416/3/5 414/3/5 415/3/5
f 417/2/6 418/2/6 419/2/6
f 419/2/6 418/2/6 420/2/6
f 421/2/6 422/2/6 423/2/6
f 423/2/6 422/2/6 424/2/6
f 425/3/6 426/3/6 427/3/6
f 427/3/6 426/3/6 428/3/6
f 431/2/6 432/2/6 433/2/6
f 433/2/6 432/2/6 434/2/6
f 429/1/6 430/1/6 435/1/6
f 435/1/6 430/1/6 436/1/6
f 437/3/6 438/3/6 439/3/6
f 439/3/6 438/3/6 440/3/6
f 441/3/6 442/3/6 443/3/6
f 443/3/6 442/3/6 444/3/6
f 447/3/6 448/3/6 449/3/6
f 449/3/6 448/3/6 450/3/6
f 445/1/6 446/1/6 451/1/6
f 451/1/6 446/1/6 452/1/6
f 453/3/6 454/3/6 455/3/6
f 455/3/6 454/3/6 456/3/6
f 457/3/6 458/3/6 459/3/6
f 459/3/6 458/3/6 460/3/6
f 463/2/6 464/2/6 465/2/6
f 465/2/6 464/2/6 466/2/6
f 461/3/6 462/3/6 467/3/6
f 467/3/6 462/3/6 468/3/6
f 469/3/6 470/3/6 471/3/6
f 471/3/6 470/3/6 472/3/6
f 473/3/6 474/3/6 475/3/6
f 475/3/6 474/3/6 476/3/6
f 477/3/6 478/3/6 479/3/6
f 479/3/6 478/3/6 480/3/6
f 481/1/6 482/1/6 483/1/6
f 483/1/6 482/1/6 484/1/6
