# MagicaVoxel @ Ephtracy

# material
mtllib sphinx.mtl
usemtl palette

# normals
vn -1 0 0
vn 1 0 0
vn 0 0 1
vn 0 0 -1
vn 0 -1 0
vn 0 1 0

# texcoords
vt 0.0175781 0.5
vt 0.185547 0.5
vt 0.685547 0.5
vt 0.931641 0.5

# verts
v -7 0 2
v -7 0 -7
v -7 2 2
v -7 2 -1
v -7 4 -1
v -7 4 -7
v -7 5 8
v -7 5 7
v -7 8 8
v -7 8 7
v -6 4 8
v -6 4 7
v -6 5 9
v -6 5 8
v -6 5 7
v -6 5 5
v -6 7 6
v -6 7 5
v -6 8 9
v -6 8 8
v -6 8 7
v -6 8 6
v -6 9 8
v -6 9 7
v -5 0 13
v -5 0 2
v -5 1 13
v -5 1 12
v -5 2 12
v -5 2 8
v -5 2 2
v -5 2 -1
v -5 4 8
v -5 4 7
v -5 4 -1
v -5 4 -7
v -5 5 7
v -5 5 5
v -5 5 4
v -5 5 -7
v -5 7 6
v -5 7 5
v -5 7 4
v -5 8 9
v -5 8 8
v -5 8 7
v -5 8 6
v -5 8 5
v -5 9 8
v -5 9 7
v -5 9 6
v -5 10 9
v -5 10 7
v -4 2 9
v -4 2 8
v -4 4 9
v -4 4 8
v -4 5 10
v -4 5 9
v -4 5 4
v -4 5 2
v -4 6 9
v -4 6 3
v -4 6 2
v -4 7 5
v -4 7 4
v -4 7 3
v -4 8 9
v -4 8 6
v -4 8 5
v -4 8 4
v -4 9 10
v -4 9 9
v -4 9 7
v -4 9 6
v -4 9 5
v -4 10 9
v -4 10 7
v -4 10 6
v -4 11 10
v -4 11 7
v -3 4 9
v -3 4 8
v -3 5 9
v -3 5 8
v -3 9 11
v -3 9 10
v -3 10 11
v -3 10 10
v -1 0 13
v -1 0 9
v -1 1 13
v -1 1 12
v -1 2 12
v -1 2 9
v 0 5 8
v 0 5 7
v 0 6 8
v 0 6 7
v -3 0 13
v -3 0 9
v -3 1 13
v -3 1 12
v -3 2 12
v -3 2 9
v -1 4 9
v -1 4 8
v -1 5 9
v -1 5 8
v -1 5 7
v -1 6 8
v -1 6 7
v -1 9 11
v -1 9 10
v -1 10 11
v -1 10 10
v 0 2 9
v 0 2 8
v 0 4 9
v 0 4 8
v 0 5 10
v 0 5 9
v 0 5 4
v 0 5 2
v 0 6 9
v 0 6 3
v 0 6 2
v 0 7 5
v 0 7 4
v 0 7 3
v 0 8 9
v 0 8 6
v 0 8 5
v 0 8 4
v 0 9 10
v 0 9 9
v 0 9 7
v 0 9 6
v 0 9 5
v 0 10 9
v 0 10 7
v 0 10 6
v 0 11 10
v 0 11 7
v 1 0 13
v 1 0 2
v 1 1 13
v 1 1 12
v 1 2 12
v 1 2 8
v 1 2 2
v 1 2 -0
v 1 4 8
v 1 4 6
v 1 4 -0
v 1 4 -7
v 1 5 6
v 1 5 5
v 1 5 4
v 1 5 -7
v 1 7 6
v 1 7 5
v 1 7 4
v 1 8 9
v 1 8 8
v 1 8 7
v 1 8 6
v 1 8 5
v 1 9 8
v 1 9 7
v 1 9 6
v 1 10 9
v 1 10 7
v 2 4 8
v 2 4 6
v 2 5 9
v 2 5 8
v 2 5 7
v 2 5 6
v 2 5 5
v 2 7 6
v 2 7 5
v 2 8 9
v 2 8 8
v 2 8 7
v 2 8 6
v 2 9 8
v 2 9 7
v 3 0 2
v 3 0 -7
v 3 2 2
v 3 2 -0
v 3 4 -0
v 3 4 -7
v 3 5 8
v 3 5 7
v 3 8 8
v 3 8 7
v -5 0 13
v -5 1 13
v -3 0 13
v -3 1 13
v -1 0 13
v -1 1 13
v 1 0 13
v 1 1 13
v -5 1 12
v -5 2 12
v -3 1 12
v -3 2 12
v -1 1 12
v -1 2 12
v 1 1 12
v 1 2 12
v -3 9 11
v -3 10 11
v -1 9 11
v -1 10 11
v -4 5 10
v -4 9 10
v -4 11 10
v -3 9 10
v -3 10 10
v -1 9 10
v -1 10 10
v 0 5 10
v 0 9 10
v 0 11 10
v -6 5 9
v -6 8 9
v -5 6 9
v -5 8 9
v -5 10 9
v -4 2 9
v -4 4 9
v -4 5 9
v -4 6 9
v -4 8 9
v -4 9 9
v -4 10 9
v -3 0 9
v -3 2 9
v -3 4 9
v -3 5 9
v -1 0 9
v -1 2 9
v -1 4 9
v -1 5 9
v 0 2 9
v 0 4 9
v 0 5 9
v 0 6 9
v 0 8 9
v 0 9 9
v 0 10 9
v 1 6 9
v 1 8 9
v 1 10 9
v 2 5 9
v 2 8 9
v -7 5 8
v -7 8 8
v -6 4 8
v -6 5 8
v -6 8 8
v -6 9 8
v -5 2 8
v -5 4 8
v -5 5 8
v -5 8 8
v -5 9 8
v -4 2 8
v -4 4 8
v -4 5 8
v -3 4 8
v -3 5 8
v -1 4 8
v -1 5 8
v 0 2 8
v 0 4 8
v 0 5 8
v 1 2 8
v 1 4 8
v 1 5 8
v 1 8 8
v 1 9 8
v 2 4 8
v 2 5 8
v 2 8 8
v 2 9 8
v 3 5 8
v 3 8 8
v -1 5 7
v -1 6 7
v 0 5 7
v 0 6 7
v -7 0 2
v -7 2 2
v -5 0 2
v -5 2 2
v 1 0 2
v 1 2 2
v 3 0 2
v 3 2 2
v 1 2 -0
v 1 4 -0
v 3 2 -0
v 3 4 -0
v -7 2 -1
v -7 4 -1
v -5 2 -1
v -5 4 -1
v -1 5 8
v -1 6 8
v 0 5 8
v 0 6 8
v -7 5 7
v -7 8 7
v -6 4 7
v -6 5 7
v -6 8 7
v -6 9 7
v -5 4 7
v -5 5 7
v -5 8 7
v -5 9 7
v -5 10 7
v -4 9 7
v -4 10 7
v -4 11 7
v 0 9 7
v 0 10 7
v 0 11 7
v 1 8 7
v 1 9 7
v 1 10 7
v 2 5 7
v 2 8 7
v 2 9 7
v 3 5 7
v 3 8 7
v -6 7 6
v -6 8 6
v -5 7 6
v -5 8 6
v -5 9 6
v -4 8 6
v -4 9 6
v -4 10 6
v 0 8 6
v 0 9 6
v 0 10 6
v 1 4 6
v 1 5 6
v 1 7 6
v 1 8 6
v 1 9 6
v 2 4 6
v 2 5 6
v 2 7 6
v 2 8 6
v -6 5 5
v -6 7 5
v -5 5 5
v -5 7 5
v -5 8 5
v -4 7 5
v -4 8 5
v -4 9 5
v 0 7 5
v 0 8 5
v 0 9 5
v 1 5 5
v 1 7 5
v 1 8 5
v 2 5 5
v 2 7 5
v -5 5 4
v -5 7 4
v -4 5 4
v -4 7 4
v -4 8 4
v 0 5 4
v 0 7 4
v 0 8 4
v 1 5 4
v 1 7 4
v -4 6 3
v -4 7 3
v 0 6 3
v 0 7 3
v -4 5 2
v -4 6 2
v 0 5 2
v 0 6 2
v -7 0 -7
v -7 4 -7
v -5 4 -7
v -5 5 -7
v 1 4 -7
v 1 5 -7
v 3 0 -7
v 3 4 -7
v -5 0 13
v -3 0 13
v -1 0 13
v 1 0 13
v -3 0 9
v -1 0 9
v -7 0 2
v -5 0 2
v 1 0 2
v 3 0 2
v -7 0 -7
v 3 0 -7
v -6 4 8
v -5 4 8
v 1 4 8
v 2 4 8
v -6 4 7
v -5 4 7
v 1 4 6
v 2 4 6
v -4 5 10
v 0 5 10
v -6 5 9
v -4 5 9
v -3 5 9
v -1 5 9
v 0 5 9
v 2 5 9
v -7 5 8
v -6 5 8
v -5 5 8
v -4 5 8
v -3 5 8
v -1 5 8
v 0 5 8
v 1 5 8
v 2 5 8
v 3 5 8
v -7 5 7
v -6 5 7
v -5 5 7
v 2 5 7
v 3 5 7
v 1 5 6
v 2 5 6
v -6 5 5
v -5 5 5
v 1 5 5
v 2 5 5
v -1 6 8
v 0 6 8
v -1 6 7
v 0 6 7
v -3 9 11
v -1 9 11
v -3 9 10
v -1 9 10
v -5 1 13
v -3 1 13
v -1 1 13
v 1 1 13
v -5 1 12
v -3 1 12
v -1 1 12
v 1 1 12
v -5 2 12
v -3 2 12
v -1 2 12
v 1 2 12
v -4 2 9
v -3 2 9
v -1 2 9
v 0 2 9
v -5 2 8
v -4 2 8
v 0 2 8
v 1 2 8
v -7 2 2
v -5 2 2
v 1 2 2
v 3 2 2
v 1 2 -0
v 3 2 -0
v -7 2 -1
v -5 2 -1
v -4 4 9
v -3 4 9
v -1 4 9
v 0 4 9
v -4 4 8
v -3 4 8
v -1 4 8
v 0 4 8
v 1 4 -0
v 3 4 -0
v -7 4 -1
v -5 4 -1
v -7 4 -7
v -5 4 -7
v 1 4 -7
v 3 4 -7
v -1 5 8
v 0 5 8
v -1 5 7
v 0 5 7
v -5 5 4
v -4 5 4
v 0 5 4
v 1 5 4
v -4 5 2
v 0 5 2
v -5 5 -7
v 1 5 -7
v -4 6 3
v 0 6 3
v -4 6 2
v 0 6 2
v -6 7 6
v -5 7 6
v 1 7 6
v 2 7 6
v -6 7 5
v -5 7 5
v -4 7 5
v 0 7 5
v 1 7 5
v 2 7 5
v -5 7 4
v -4 7 4
v 0 7 4
v 1 7 4
v -4 7 3
v 0 7 3
v -6 8 9
v -5 8 9
v 1 8 9
v 2 8 9
v -7 8 8
v -6 8 8
v -5 8 8
v 1 8 8
v 2 8 8
v 3 8 8
v -7 8 7
v -6 8 7
v -5 8 7
v 1 8 7
v 2 8 7
v 3 8 7
v -6 8 6
v -5 8 6
v -4 8 6
v 0 8 6
v 1 8 6
v 2 8 6
v -5 8 5
v -4 8 5
v 0 8 5
v 1 8 5
v -4 8 4
v 0 8 4
v -6 9 8
v -5 9 8
v 1 9 8
v 2 9 8
v -6 9 7
v -5 9 7
v -4 9 7
v 0 9 7
v 1 9 7
v 2 9 7
v -5 9 6
v -4 9 6
v 0 9 6
v 1 9 6
v -4 9 5
v 0 9 5
v -3 10 11
v -1 10 11
v -3 10 10
v -1 10 10
v -5 10 9
v -4 10 9
v 0 10 9
v 1 10 9
v -5 10 7
v -4 10 7
v 0 10 7
v 1 10 7
v -4 10 6
v 0 10 6
v -4 11 10
v 0 11 10
v -4 11 7
v 0 11 7

# faces
f 3/2/1 2/2/1 1/2/1
f 4/2/1 2/2/1 3/2/1
f 5/2/1 2/2/1 4/2/1
f 6/2/1 2/2/1 5/2/1
f 9/3/1 8/3/1 7/3/1
f 10/3/1 8/3/1 9/3/1
f 14/3/1 12/3/1 11/3/1
f 15/3/1 12/3/1 14/3/1
f 17/4/1 16/4/1 15/4/1
f 18/4/1 16/4/1 17/4/1
f 19/3/1 14/3/1 13/3/1
f 20/3/1 14/3/1 19/3/1
f 21/4/1 17/4/1 15/4/1
f 22/4/1 17/4/1 21/4/1
f 23/3/1 21/3/1 20/3/1
f 24/3/1 21/3/1 23/3/1
f 27/2/1 26/2/1 25/2/1
f 28/2/1 26/2/1 27/2/1
f 29/2/1 26/2/1 28/2/1
f 30/2/1 26/2/1 29/2/1
f 31/2/1 26/2/1 30/2/1
f 33/2/1 32/2/1 31/2/1
f 33/2/1 31/2/1 30/2/1
f 34/2/1 32/2/1 33/2/1
f 35/2/1 32/2/1 34/2/1
f 37/2/1 36/2/1 35/2/1
f 37/2/1 35/2/1 34/2/1
f 38/2/1 36/2/1 37/2/1
f 39/2/1 36/2/1 38/2/1
f 40/2/1 36/2/1 39/2/1
f 42/4/1 39/4/1 38/4/1
f 43/4/1 39/4/1 42/4/1
f 47/4/1 42/4/1 41/4/1
f 48/4/1 42/4/1 47/4/1
f 49/3/1 45/3/1 44/3/1
f 50/4/1 47/4/1 46/4/1
f 51/4/1 47/4/1 50/4/1
f 52/3/1 49/3/1 44/3/1
f 52/3/1 50/3/1 49/3/1
f 53/3/1 50/3/1 52/3/1
f 56/2/1 55/2/1 54/2/1
f 57/2/1 55/2/1 56/2/1
f 62/2/1 59/2/1 58/2/1
f 63/4/1 61/4/1 60/4/1
f 64/4/1 61/4/1 63/4/1
f 66/4/1 63/4/1 60/4/1
f 67/4/1 63/4/1 66/4/1
f 68/2/1 62/2/1 58/2/1
f 70/4/1 66/4/1 65/4/1
f 71/4/1 66/4/1 70/4/1
f 72/2/1 68/2/1 58/2/1
f 73/2/1 68/2/1 72/2/1
f 75/4/1 70/4/1 69/4/1
f 76/4/1 70/4/1 75/4/1
f 77/3/1 73/3/1 72/3/1
f 78/4/1 75/4/1 74/4/1
f 79/4/1 75/4/1 78/4/1
f 80/3/1 77/3/1 72/3/1
f 80/3/1 78/3/1 77/3/1
f 81/3/1 78/3/1 80/3/1
f 84/2/1 83/2/1 82/2/1
f 85/2/1 83/2/1 84/2/1
f 88/1/1 87/1/1 86/1/1
f 89/1/1 87/1/1 88/1/1
f 92/2/1 91/2/1 90/2/1
f 93/2/1 91/2/1 92/2/1
f 94/2/1 91/2/1 93/2/1
f 95/2/1 91/2/1 94/2/1
f 98/3/1 97/3/1 96/3/1
f 99/3/1 97/3/1 98/3/1
f 100/2/2 101/2/2 102/2/2
f 102/2/2 101/2/2 103/2/2
f 103/2/2 101/2/2 104/2/2
f 104/2/2 101/2/2 105/2/2
f 106/2/2 107/2/2 108/2/2
f 108/2/2 107/2/2 109/2/2
f 109/2/2 110/2/2 111/2/2
f 111/2/2 110/2/2 112/2/2
f 113/1/2 114/1/2 115/1/2
f 115/1/2 114/1/2 116/1/2
f 117/2/2 118/2/2 119/2/2
f 119/2/2 118/2/2 120/2/2
f 121/2/2 122/2/2 125/2/2
f 123/4/2 124/4/2 126/4/2
f 126/4/2 124/4/2 127/4/2
f 123/4/2 126/4/2 129/4/2
f 129/4/2 126/4/2 130/4/2
f 121/2/2 125/2/2 131/2/2
f 128/4/2 129/4/2 133/4/2
f 133/4/2 129/4/2 134/4/2
f 121/2/2 131/2/2 135/2/2
f 135/2/2 131/2/2 136/2/2
f 132/4/2 133/4/2 138/4/2
f 138/4/2 133/4/2 139/4/2
f 135/3/2 136/3/2 140/3/2
f 137/4/2 138/4/2 141/4/2
f 141/4/2 138/4/2 142/4/2
f 135/3/2 140/3/2 143/3/2
f 140/3/2 141/3/2 143/3/2
f 143/3/2 141/3/2 144/3/2
f 145/2/2 146/2/2 147/2/2
f 147/2/2 146/2/2 148/2/2
f 148/2/2 146/2/2 149/2/2
f 149/2/2 146/2/2 150/2/2
f 150/2/2 146/2/2 151/2/2
f 151/2/2 152/2/2 153/2/2
f 150/2/2 151/2/2 153/2/2
f 153/2/2 152/2/2 154/2/2
f 154/2/2 152/2/2 155/2/2
f 155/2/2 156/2/2 157/2/2
f 154/2/2 155/2/2 157/2/2
f 157/2/2 156/2/2 158/2/2
f 158/2/2 156/2/2 159/2/2
f 159/2/2 156/2/2 160/2/2
f 158/4/2 159/4/2 162/4/2
f 162/4/2 159/4/2 163/4/2
f 161/4/2 162/4/2 167/4/2
f 167/4/2 162/4/2 168/4/2
f 164/3/2 165/3/2 169/3/2
f 166/4/2 167/4/2 170/4/2
f 170/4/2 167/4/2 171/4/2
f 164/3/2 169/3/2 172/3/2
f 169/3/2 170/3/2 172/3/2
f 172/3/2 170/3/2 173/3/2
f 174/3/2 175/3/2 177/3/2
f 177/3/2 175/3/2 178/3/2
f 178/3/2 175/3/2 179/3/2
f 179/4/2 180/4/2 181/4/2
f 178/4/2 179/4/2 181/4/2
f 181/4/2 180/4/2 182/4/2
f 176/3/2 177/3/2 183/3/2
f 183/3/2 177/3/2 184/3/2
f 178/4/2 181/4/2 185/4/2
f 185/4/2 181/4/2 186/4/2
f 184/3/2 185/3/2 187/3/2
f 187/3/2 185/3/2 188/3/2
f 189/2/2 190/2/2 191/2/2
f 191/2/2 190/2/2 192/2/2
f 192/2/2 190/2/2 193/2/2
f 193/2/2 190/2/2 194/2/2
f 195/3/2 196/3/2 197/3/2
f 197/3/2 196/3/2 198/3/2
f 201/2/3 200/2/3 199/2/3
f 202/2/3 200/2/3 201/2/3
f 205/2/3 204/2/3 203/2/3
f 206/2/3 204/2/3 205/2/3
f 209/2/3 208/2/3 207/2/3
f 210/2/3 208/2/3 209/2/3
f 213/2/3 212/2/3 211/2/3
f 214/2/3 212/2/3 213/2/3
f 217/1/3 216/1/3 215/1/3
f 218/1/3 216/1/3 217/1/3
f 222/2/3 220/2/3 219/2/3
f 222/3/3 221/3/3 220/3/3
f 223/3/3 221/3/3 222/3/3
f 224/2/3 222/2/3 219/2/3
f 225/3/3 221/3/3 223/3/3
f 226/2/3 224/2/3 219/2/3
f 227/3/3 225/3/3 224/3/3
f 227/2/3 224/2/3 226/2/3
f 228/3/3 221/3/3 225/3/3
f 228/3/3 225/3/3 227/3/3
f 231/3/3 230/3/3 229/3/3
f 232/3/3 230/3/3 231/3/3
f 236/3/3 231/3/3 229/3/3
f 237/2/3 232/2/3 231/2/3
f 237/3/3 231/3/3 236/3/3
f 238/3/3 233/3/3 232/3/3
f 238/2/3 232/2/3 237/2/3
f 239/3/3 233/3/3 238/3/3
f 240/3/3 233/3/3 239/3/3
f 242/2/3 235/2/3 234/2/3
f 243/2/3 235/2/3 242/2/3
f 245/2/3 242/2/3 241/2/3
f 245/2/3 244/2/3 243/2/3
f 245/2/3 243/2/3 242/2/3
f 246/2/3 244/2/3 245/2/3
f 247/2/3 244/2/3 246/2/3
f 248/2/3 244/2/3 247/2/3
f 249/2/3 247/2/3 246/2/3
f 250/2/3 247/2/3 249/2/3
f 256/3/3 252/3/3 251/3/3
f 256/2/3 253/2/3 252/2/3
f 257/3/3 255/3/3 254/3/3
f 257/2/3 253/2/3 256/2/3
f 257/3/3 254/3/3 253/3/3
f 258/3/3 255/3/3 257/3/3
f 259/3/3 256/3/3 251/3/3
f 259/3/3 257/3/3 256/3/3
f 260/3/3 257/3/3 259/3/3
f 264/3/3 262/3/3 261/3/3
f 265/3/3 262/3/3 264/3/3
f 268/3/3 264/3/3 263/3/3
f 269/3/3 264/3/3 268/3/3
f 270/3/3 266/3/3 265/3/3
f 271/3/3 266/3/3 270/3/3
f 272/2/3 269/2/3 268/2/3
f 272/2/3 268/2/3 267/2/3
f 273/2/3 269/2/3 272/2/3
f 274/2/3 269/2/3 273/2/3
f 275/2/3 274/2/3 273/2/3
f 276/2/3 274/2/3 275/2/3
f 280/2/3 278/2/3 277/2/3
f 281/2/3 278/2/3 280/2/3
f 282/2/3 280/2/3 279/2/3
f 282/2/3 281/2/3 280/2/3
f 283/2/3 281/2/3 282/2/3
f 284/2/3 281/2/3 283/2/3
f 287/3/3 284/3/3 283/3/3
f 288/3/3 284/3/3 287/3/3
f 289/3/3 286/3/3 285/3/3
f 290/3/3 286/3/3 289/3/3
f 291/3/3 289/3/3 288/3/3
f 292/3/3 289/3/3 291/3/3
f 295/4/3 294/4/3 293/4/3
f 296/4/3 294/4/3 295/4/3
f 299/2/3 298/2/3 297/2/3
f 300/2/3 298/2/3 299/2/3
f 303/2/3 302/2/3 301/2/3
f 304/2/3 302/2/3 303/2/3
f 307/2/3 306/2/3 305/2/3
f 308/2/3 306/2/3 307/2/3
f 311/2/3 310/2/3 309/2/3
f 312/2/3 310/2/3 311/2/3
f 313/2/4 314/2/4 315/2/4
f 315/2/4 314/2/4 316/2/4
f 317/3/4 318/3/4 320/3/4
f 320/3/4 318/3/4 321/3/4
f 319/3/4 320/3/4 323/3/4
f 323/3/4 320/3/4 324/3/4
f 321/3/4 322/3/4 325/3/4
f 325/3/4 322/3/4 326/3/4
f 326/3/4 327/3/4 328/3/4
f 328/3/4 327/3/4 329/3/4
f 329/3/4 330/3/4 332/3/4
f 332/3/4 330/3/4 333/3/4
f 331/3/4 332/3/4 335/3/4
f 335/3/4 332/3/4 336/3/4
f 334/3/4 335/3/4 338/3/4
f 338/3/4 335/3/4 339/3/4
f 337/3/4 338/3/4 340/3/4
f 340/3/4 338/3/4 341/3/4
f 342/4/4 343/4/4 344/4/4
f 344/4/4 343/4/4 345/4/4
f 345/4/4 346/4/4 347/4/4
f 347/4/4 346/4/4 348/4/4
f 348/4/4 349/4/4 351/4/4
f 351/4/4 349/4/4 352/4/4
f 350/4/4 351/4/4 356/4/4
f 356/4/4 351/4/4 357/4/4
f 353/3/4 354/3/4 358/3/4
f 358/3/4 354/3/4 359/3/4
f 355/4/4 356/4/4 360/4/4
f 360/4/4 356/4/4 361/4/4
f 362/4/4 363/4/4 364/4/4
f 364/4/4 363/4/4 365/4/4
f 365/4/4 366/4/4 367/4/4
f 367/4/4 366/4/4 368/4/4
f 368/4/4 369/4/4 371/4/4
f 371/4/4 369/4/4 372/4/4
f 370/4/4 371/4/4 374/4/4
f 374/4/4 371/4/4 375/4/4
f 373/4/4 374/4/4 376/4/4
f 376/4/4 374/4/4 377/4/4
f 378/4/4 379/4/4 380/4/4
f 380/4/4 379/4/4 381/4/4
f 381/4/4 382/4/4 384/4/4
f 384/4/4 382/4/4 385/4/4
f 383/4/4 384/4/4 386/4/4
f 386/4/4 384/4/4 387/4/4
f 388/4/4 389/4/4 390/4/4
f 390/4/4 389/4/4 391/4/4
f 392/4/4 393/4/4 394/4/4
f 394/4/4 393/4/4 395/4/4
f 396/2/4 397/2/4 398/2/4
f 396/2/4 398/2/4 400/2/4
f 398/2/4 399/2/4 400/2/4
f 400/2/4 399/2/4 401/2/4
f 396/2/4 400/2/4 402/2/4
f 402/2/4 400/2/4 403/2/4
f 408/2/5 405/2/5 404/2/5
f 409/2/5 407/2/5 406/2/5
f 411/2/5 408/2/5 404/2/5
f 411/2/5 409/2/5 408/2/5
f 412/2/5 407/2/5 409/2/5
f 412/2/5 409/2/5 411/2/5
f 414/2/5 411/2/5 410/2/5
f 414/2/5 413/2/5 412/2/5
f 414/2/5 412/2/5 411/2/5
f 415/2/5 413/2/5 414/2/5
f 420/3/5 417/3/5 416/3/5
f 421/3/5 417/3/5 420/3/5
f 422/3/5 419/3/5 418/3/5
f 423/3/5 419/3/5 422/3/5
f 427/2/5 425/2/5 424/2/5
f 428/2/5 425/2/5 427/2/5
f 429/2/5 425/2/5 428/2/5
f 430/2/5 425/2/5 429/2/5
f 433/3/5 427/3/5 426/3/5
f 434/3/5 427/3/5 433/3/5
f 435/2/5 428/2/5 427/2/5
f 435/3/5 427/3/5 434/3/5
f 436/2/5 428/2/5 435/2/5
f 437/2/5 430/2/5 429/2/5
f 438/3/5 431/3/5 430/3/5
f 438/2/5 430/2/5 437/2/5
f 439/3/5 431/3/5 438/3/5
f 440/3/5 431/3/5 439/3/5
f 442/3/5 433/3/5 432/3/5
f 443/3/5 433/3/5 442/3/5
f 445/3/5 441/3/5 440/3/5
f 446/3/5 441/3/5 445/3/5
f 449/4/5 444/4/5 443/4/5
f 450/4/5 444/4/5 449/4/5
f 451/4/5 448/4/5 447/4/5
f 452/4/5 448/4/5 451/4/5
f 455/3/5 454/3/5 453/3/5
f 456/3/5 454/3/5 455/3/5
f 459/1/5 458/1/5 457/1/5
f 460/1/5 458/1/5 459/1/5
f 461/2/6 462/2/6 465/2/6
f 465/2/6 462/2/6 466/2/6
f 463/2/6 464/2/6 467/2/6
f 467/2/6 464/2/6 468/2/6
f 469/2/6 470/2/6 473/2/6
f 473/2/6 470/2/6 474/2/6
f 471/2/6 472/2/6 475/2/6
f 475/2/6 472/2/6 476/2/6
f 469/2/6 473/2/6 477/2/6
f 477/2/6 473/2/6 478/2/6
f 476/2/6 472/2/6 479/2/6
f 479/2/6 472/2/6 480/2/6
f 483/2/6 484/2/6 485/2/6
f 485/2/6 484/2/6 486/2/6
f 481/2/6 482/2/6 487/2/6
f 487/2/6 482/2/6 488/2/6
f 489/2/6 490/2/6 493/2/6
f 493/2/6 490/2/6 494/2/6
f 491/2/6 492/2/6 495/2/6
f 495/2/6 492/2/6 496/2/6
f 499/2/6 500/2/6 501/2/6
f 501/2/6 500/2/6 502/2/6
f 497/2/6 498/2/6 503/2/6
f 503/2/6 498/2/6 504/2/6
f 505/2/6 506/2/6 507/2/6
f 507/2/6 506/2/6 508/2/6
f 509/2/6 510/2/6 513/2/6
f 511/2/6 512/2/6 514/2/6
f 509/2/6 513/2/6 515/2/6
f 513/2/6 514/2/6 515/2/6
f 514/2/6 512/2/6 516/2/6
f 515/2/6 514/2/6 516/2/6
f 517/4/6 518/4/6 519/4/6
f 519/4/6 518/4/6 520/4/6
f 521/4/6 522/4/6 525/4/6
f 525/4/6 522/4/6 526/4/6
f 523/4/6 524/4/6 529/4/6
f 529/4/6 524/4/6 530/4/6
f 526/4/6 527/4/6 531/4/6
f 531/4/6 527/4/6 532/4/6
f 528/4/6 529/4/6 533/4/6
f 533/4/6 529/4/6 534/4/6
f 532/4/6 533/4/6 535/4/6
f 535/4/6 533/4/6 536/4/6
f 537/3/6 538/3/6 542/3/6
f 542/3/6 538/3/6 543/3/6
f 539/3/6 540/3/6 544/3/6
f 544/3/6 540/3/6 545/3/6
f 541/3/6 542/3/6 547/3/6
f 547/3/6 542/3/6 548/3/6
f 545/3/6 546/3/6 551/3/6
f 551/3/6 546/3/6 552/3/6
f 548/4/6 549/4/6 553/4/6
f 553/4/6 549/4/6 554/4/6
f 550/4/6 551/4/6 557/4/6
f 557/4/6 551/4/6 558/4/6
f 554/4/6 555/4/6 559/4/6
f 559/4/6 555/4/6 560/4/6
f 556/4/6 557/4/6 561/4/6
f 561/4/6 557/4/6 562/4/6
f 560/4/6 561/4/6 563/4/6
f 563/4/6 561/4/6 564/4/6
f 565/3/6 566/3/6 569/3/6
f 569/3/6 566/3/6 570/3/6
f 567/3/6 568/3/6 573/3/6
f 573/3/6 568/3/6 574/3/6
f 570/4/6 571/4/6 575/4/6
f 575/4/6 571/4/6 576/4/6
f 572/4/6 573/4/6 577/4/6
f 577/4/6 573/4/6 578/4/6
f 576/4/6 577/4/6 579/4/6
f 579/4/6 577/4/6 580/4/6
f 581/1/6 582/1/6 583/1/6
f 583/1/6 582/1/6 584/1/6
f 585/3/6 586/3/6 589/3/6
f 589/3/6 586/3/6 590/3/6
f 587/3/6 588/3/6 591/3/6
f 591/3/6 588/3/6 592/3/6
f 590/4/6 591/4/6 593/4/6
f 593/4/6 591/4/6 594/4/6
f 595/3/6 596/3/6 597/3/6
f 597/3/6 596/3/6 598/3/6
