# MagicaVoxel @ Ephtracy

# material
mtllib ass.mtl
usemtl palette

# normals
vn -1 0 0
vn 1 0 0
vn 0 0 1
vn 0 0 -1
vn 0 -1 0
vn 0 1 0

# texcoords
vt 0.0917969 0.5
vt 0.115234 0.5
vt 0.994141 0.5

# verts
v 22 26 -26
v 22 26 -31
v 22 27 -26
v 22 27 -27
v 22 27 -30
v 22 27 -31
v 22 29 -26
v 22 29 -27
v 22 29 -30
v 22 29 -31
v 22 31 -26
v 22 31 -27
v 22 31 -30
v 22 31 -31
v 22 33 -26
v 22 33 -27
v 22 33 -30
v 22 33 -31
v 22 34 -30
v 22 34 -31
v 22 35 -26
v 22 35 -27
v 22 36 -30
v 22 36 -31
v 22 37 -26
v 22 37 -27
v 22 37 -31
v 27 25 -26
v 27 25 -27
v 27 25 -30
v 27 25 -31
v 27 26 -26
v 27 26 -27
v 27 26 -30
v 27 26 -31
v 27 37 -26
v 27 37 -27
v 27 37 -31
v 27 38 -26
v 27 38 -31
v 33 25 -26
v 33 25 -31
v 33 26 -26
v 33 26 -31
v 33 37 -26
v 33 37 -31
v 33 38 -26
v 33 38 -31
v 34 26 -26
v 34 26 -31
v 34 37 -26
v 34 37 -31
v 22 26 -26
v 22 27 -26
v 22 29 -26
v 22 31 -26
v 22 33 -26
v 22 35 -26
v 22 37 -26
v 27 25 -26
v 27 26 -26
v 27 37 -26
v 27 38 -26
v 31 25 -26
v 31 26 -26
v 31 27 -26
v 31 29 -26
v 31 31 -26
v 31 33 -26
v 31 35 -26
v 31 37 -26
v 31 38 -26
v 32 26 -26
v 32 37 -26
v 33 25 -26
v 33 26 -26
v 33 37 -26
v 33 38 -26
v 34 26 -26
v 34 37 -26
v 22 26 -31
v 22 27 -31
v 22 29 -31
v 22 31 -31
v 22 33 -31
v 22 34 -31
v 22 36 -31
v 22 37 -31
v 27 25 -31
v 27 26 -31
v 27 37 -31
v 27 38 -31
v 31 25 -31
v 31 26 -31
v 31 37 -31
v 31 38 -31
v 32 26 -31
v 32 27 -31
v 32 29 -31
v 32 31 -31
v 32 33 -31
v 32 34 -31
v 32 36 -31
v 32 37 -31
v 33 25 -31
v 33 26 -31
v 33 37 -31
v 33 38 -31
v 34 26 -31
v 34 37 -31
v 27 25 -26
v 31 25 -26
v 33 25 -26
v 27 25 -27
v 31 25 -27
v 27 25 -30
v 31 25 -30
v 27 25 -31
v 31 25 -31
v 33 25 -31
v 22 26 -26
v 27 26 -26
v 33 26 -26
v 34 26 -26
v 27 26 -27
v 27 26 -30
v 22 26 -31
v 27 26 -31
v 33 26 -31
v 34 26 -31
v 22 37 -26
v 27 37 -26
v 33 37 -26
v 34 37 -26
v 22 37 -27
v 27 37 -27
v 22 37 -31
v 27 37 -31
v 33 37 -31
v 34 37 -31
v 27 38 -26
v 31 38 -26
v 33 38 -26
v 27 38 -31
v 31 38 -31
v 33 38 -31

# faces
f 3/1/1 2/1/1 1/1/1
f 4/1/1 2/1/1 3/1/1
f 5/1/1 2/1/1 4/1/1
f 6/1/1 2/1/1 5/1/1
f 7/2/1 4/2/1 3/2/1
f 8/1/1 5/1/1 4/1/1
f 8/2/1 4/2/1 7/2/1
f 9/2/1 6/2/1 5/2/1
f 9/1/1 5/1/1 8/1/1
f 10/2/1 6/2/1 9/2/1
f 11/1/1 8/1/1 7/1/1
f 11/1/1 9/1/1 8/1/1
f 11/1/1 10/1/1 9/1/1
f 12/1/1 10/1/1 11/1/1
f 13/1/1 10/1/1 12/1/1
f 14/1/1 10/1/1 13/1/1
f 15/2/1 12/2/1 11/2/1
f 16/1/1 13/1/1 12/1/1
f 16/2/1 12/2/1 15/2/1
f 17/2/1 14/2/1 13/2/1
f 17/1/1 13/1/1 16/1/1
f 18/2/1 14/2/1 17/2/1
f 19/1/1 16/1/1 15/1/1
f 19/1/1 17/1/1 16/1/1
f 19/1/1 18/1/1 17/1/1
f 20/1/1 18/1/1 19/1/1
f 21/1/1 19/1/1 15/1/1
f 22/1/1 19/1/1 21/1/1
f 23/2/1 20/2/1 19/2/1
f 23/1/1 19/1/1 22/1/1
f 24/2/1 20/2/1 23/2/1
f 25/2/1 22/2/1 21/2/1
f 26/1/1 23/1/1 22/1/1
f 26/2/1 22/2/1 25/2/1
f 26/1/1 24/1/1 23/1/1
f 27/1/1 24/1/1 26/1/1
f 32/2/1 29/2/1 28/2/1
f 33/1/1 30/1/1 29/1/1
f 33/2/1 29/2/1 32/2/1
f 34/2/1 31/2/1 30/2/1
f 34/1/1 30/1/1 33/1/1
f 35/2/1 31/2/1 34/2/1
f 39/1/1 37/1/1 36/1/1
f 39/1/1 38/1/1 37/1/1
f 40/1/1 38/1/1 39/1/1
f 41/3/2 42/3/2 43/3/2
f 43/3/2 42/3/2 44/3/2
f 45/3/2 46/3/2 47/3/2
f 47/3/2 46/3/2 48/3/2
f 49/3/2 50/3/2 51/3/2
f 51/3/2 50/3/2 52/3/2
f 61/1/3 54/1/3 53/1/3
f 62/2/3 59/2/3 58/2/3
f 64/2/3 61/2/3 60/2/3
f 65/1/3 54/1/3 61/1/3
f 65/2/3 61/2/3 64/2/3
f 66/2/3 55/2/3 54/2/3
f 66/1/3 54/1/3 65/1/3
f 67/1/3 56/1/3 55/1/3
f 67/2/3 55/2/3 66/2/3
f 68/2/3 57/2/3 56/2/3
f 68/1/3 56/1/3 67/1/3
f 69/1/3 58/1/3 57/1/3
f 69/2/3 57/2/3 68/2/3
f 70/2/3 62/2/3 58/2/3
f 70/1/3 58/1/3 69/1/3
f 71/1/3 63/1/3 62/1/3
f 71/2/3 62/2/3 70/2/3
f 72/1/3 63/1/3 71/1/3
f 73/2/3 70/2/3 69/2/3
f 73/3/3 65/3/3 64/3/3
f 73/2/3 66/2/3 65/2/3
f 73/2/3 71/2/3 70/2/3
f 73/2/3 69/2/3 68/2/3
f 73/2/3 67/2/3 66/2/3
f 73/2/3 68/2/3 67/2/3
f 74/3/3 72/3/3 71/3/3
f 74/2/3 71/2/3 73/2/3
f 75/3/3 73/3/3 64/3/3
f 75/3/3 74/3/3 73/3/3
f 76/3/3 74/3/3 75/3/3
f 77/3/3 72/3/3 74/3/3
f 77/3/3 74/3/3 76/3/3
f 78/3/3 72/3/3 77/3/3
f 79/3/3 77/3/3 76/3/3
f 80/3/3 77/3/3 79/3/3
f 81/1/4 82/1/4 90/1/4
f 87/1/4 88/1/4 91/1/4
f 89/2/4 90/2/4 93/2/4
f 90/1/4 82/1/4 94/1/4
f 93/2/4 90/2/4 94/2/4
f 91/1/4 92/1/4 95/1/4
f 87/1/4 91/1/4 95/1/4
f 95/1/4 92/1/4 96/1/4
f 94/1/4 82/1/4 97/1/4
f 93/3/4 94/3/4 97/3/4
f 82/2/4 83/2/4 98/2/4
f 97/1/4 82/1/4 98/1/4
f 83/1/4 84/1/4 99/1/4
f 98/2/4 83/2/4 99/2/4
f 84/2/4 85/2/4 100/2/4
f 99/1/4 84/1/4 100/1/4
f 85/1/4 86/1/4 101/1/4
f 100/2/4 85/2/4 101/2/4
f 86/2/4 87/2/4 102/2/4
f 101/1/4 86/1/4 102/1/4
f 87/1/4 95/1/4 103/1/4
f 102/2/4 87/2/4 103/2/4
f 95/3/4 96/3/4 104/3/4
f 103/1/4 95/1/4 104/1/4
f 93/3/4 97/3/4 105/3/4
f 97/3/4 98/3/4 105/3/4
f 103/3/4 104/3/4 105/3/4
f 101/3/4 102/3/4 105/3/4
f 102/3/4 103/3/4 105/3/4
f 98/3/4 99/3/4 105/3/4
f 99/3/4 100/3/4 105/3/4
f 100/3/4 101/3/4 105/3/4
f 105/3/4 104/3/4 106/3/4
f 104/3/4 96/3/4 107/3/4
f 106/3/4 104/3/4 107/3/4
f 107/3/4 96/3/4 108/3/4
f 106/3/4 107/3/4 109/3/4
f 109/3/4 107/3/4 110/3/4
f 114/2/5 112/2/5 111/2/5
f 115/3/5 113/3/5 112/3/5
f 115/2/5 112/2/5 114/2/5
f 116/1/5 115/1/5 114/1/5
f 117/3/5 113/3/5 115/3/5
f 117/1/5 115/1/5 116/1/5
f 118/2/5 117/2/5 116/2/5
f 119/3/5 113/3/5 117/3/5
f 119/2/5 117/2/5 118/2/5
f 120/3/5 113/3/5 119/3/5
f 125/1/5 122/1/5 121/1/5
f 126/1/5 125/1/5 121/1/5
f 127/1/5 126/1/5 121/1/5
f 128/1/5 126/1/5 127/1/5
f 129/3/5 124/3/5 123/3/5
f 130/3/5 124/3/5 129/3/5
f 131/2/6 132/2/6 135/2/6
f 135/2/6 132/2/6 136/2/6
f 135/1/6 136/1/6 137/1/6
f 137/1/6 136/1/6 138/1/6
f 133/3/6 134/3/6 139/3/6
f 139/3/6 134/3/6 140/3/6
f 141/1/6 142/1/6 144/1/6
f 142/3/6 143/3/6 145/3/6
f 144/1/6 142/1/6 145/1/6
f 145/3/6 143/3/6 146/3/6
